M48
; DRILL file {KiCad 8.0.3} date 2025-04-20T12:23:40-0400
; FORMAT={-:-/ absolute / metric / decimal}
; #@! TF.CreationDate,2025-04-20T12:23:40-04:00
; #@! TF.GenerationSoftware,Kicad,Pcbnew,8.0.3
; #@! TF.FileFunction,Plated,1,2,PTH
FMAT,2
METRIC
; #@! TA.AperFunction,Plated,PTH,ViaDrill
T1C0.400
; #@! TA.AperFunction,Plated,PTH,ComponentDrill
T2C0.800
; #@! TA.AperFunction,Plated,PTH,ComponentDrill
T3C1.000
%
G90
G05
T1
X91.48Y-127.0
X126.1Y-111.55
X155.4Y-62.6
X156.3Y-90.1
X171.5Y-129.7
X173.0Y-128.6
T2
X150.0Y-59.65
X150.0Y-62.15
X154.1Y-57.18
X154.1Y-64.8
X156.64Y-57.18
X156.64Y-64.8
X159.18Y-57.18
X159.18Y-64.8
X161.72Y-57.18
X161.72Y-64.8
X163.7Y-101.5
X163.7Y-104.04
X163.7Y-106.58
X163.7Y-109.12
X163.7Y-111.66
X163.7Y-114.2
X163.7Y-116.74
X163.7Y-119.28
X163.7Y-121.82
X163.7Y-124.36
X164.26Y-57.18
X164.26Y-64.8
X166.35Y-97.7
X166.8Y-57.18
X166.8Y-64.8
X168.85Y-97.7
X169.34Y-57.18
X169.34Y-64.8
X171.32Y-101.5
X171.32Y-104.04
X171.32Y-106.58
X171.32Y-109.12
X171.32Y-111.66
X171.32Y-114.2
X171.32Y-116.74
X171.32Y-119.28
X171.32Y-121.82
X171.32Y-124.36
X171.88Y-57.18
X171.88Y-64.8
X174.42Y-57.18
X174.42Y-64.8
X176.96Y-57.18
X176.96Y-64.8
T3
X86.4Y-46.0
X86.4Y-136.0
X88.94Y-46.0
X88.94Y-136.0
X91.48Y-46.0
X91.48Y-136.0
X91.775Y-118.485
X91.775Y-121.025
X94.02Y-46.0
X94.02Y-136.0
X94.315Y-118.485
X94.315Y-121.025
X96.56Y-46.0
X96.56Y-136.0
X96.855Y-118.485
X96.855Y-121.025
X99.1Y-46.0
X99.1Y-136.0
X99.395Y-118.485
X99.395Y-121.025
X101.64Y-46.0
X101.64Y-136.0
X101.935Y-118.485
X101.935Y-121.025
X104.18Y-46.0
X104.18Y-136.0
X104.475Y-118.485
X104.475Y-121.025
X106.72Y-46.0
X106.72Y-136.0
X107.015Y-118.485
X107.015Y-121.025
X109.26Y-46.0
X109.26Y-136.0
X109.555Y-118.485
X109.555Y-121.025
X111.8Y-46.0
X111.8Y-136.0
X112.095Y-118.485
X112.095Y-121.025
X114.34Y-46.0
X114.34Y-136.0
X114.635Y-118.485
X114.635Y-121.025
X116.88Y-46.0
X116.88Y-136.0
X119.42Y-46.0
X119.42Y-136.0
X121.96Y-46.0
X121.96Y-136.0
X124.5Y-46.0
X124.5Y-136.0
X127.04Y-46.0
X127.04Y-136.0
X129.58Y-46.0
X129.58Y-136.0
X132.12Y-46.0
X132.12Y-136.0
X134.66Y-46.0
X134.66Y-136.0
X137.2Y-46.0
X137.2Y-136.0
X139.74Y-46.0
X139.74Y-136.0
X142.28Y-46.0
X142.28Y-136.0
X144.82Y-46.0
X144.82Y-136.0
X147.36Y-46.0
X147.36Y-136.0
X149.9Y-46.0
X149.9Y-136.0
X152.44Y-46.0
X152.44Y-136.0
X154.98Y-46.0
X154.98Y-136.0
X157.5Y-74.8
X157.5Y-77.36
X157.5Y-79.9
X157.52Y-46.0
X157.52Y-136.0
X160.04Y-74.8
X160.04Y-77.36
X160.04Y-79.9
X160.06Y-46.0
X160.06Y-136.0
X162.58Y-74.8
X162.58Y-77.36
X162.58Y-79.9
X162.6Y-46.0
X162.6Y-136.0
X165.12Y-74.8
X165.12Y-77.36
X165.12Y-79.9
X165.14Y-46.0
X165.14Y-136.0
X167.66Y-74.8
X167.66Y-77.36
X167.66Y-79.9
X167.68Y-46.0
X167.68Y-136.0
X170.2Y-74.8
X170.2Y-77.36
X170.2Y-79.9
X170.22Y-46.0
X170.22Y-136.0
X172.76Y-46.0
X172.76Y-136.0
X175.3Y-46.0
X175.3Y-136.0
X177.84Y-46.0
X177.84Y-136.0
X180.38Y-46.0
X180.38Y-136.0
X182.9Y-106.6
X182.9Y-109.14
X182.9Y-111.68
X182.9Y-114.22
X182.9Y-116.76
X182.9Y-119.3
X182.9Y-121.84
X182.9Y-124.38
X182.92Y-46.0
X182.92Y-136.0
X185.46Y-46.0
X185.46Y-136.0
M30
