G04 #@! TF.GenerationSoftware,KiCad,Pcbnew,8.0.3*
G04 #@! TF.CreationDate,2025-04-20T12:23:29-04:00*
G04 #@! TF.ProjectId,memory-loader-interface,6d656d6f-7279-42d6-9c6f-616465722d69,1.0*
G04 #@! TF.SameCoordinates,Original*
G04 #@! TF.FileFunction,Legend,Bot*
G04 #@! TF.FilePolarity,Positive*
%FSLAX46Y46*%
G04 Gerber Fmt 4.6, Leading zero omitted, Abs format (unit mm)*
G04 Created by KiCad (PCBNEW 8.0.3) date 2025-04-20 12:23:29*
%MOMM*%
%LPD*%
G01*
G04 APERTURE LIST*
%ADD10C,0.150000*%
%ADD11C,0.120000*%
%ADD12R,1.700000X1.700000*%
%ADD13O,1.700000X1.700000*%
%ADD14R,1.600000X1.600000*%
%ADD15O,1.600000X1.600000*%
%ADD16C,1.600000*%
G04 APERTURE END LIST*
D10*
X137704819Y-48908207D02*
X137228628Y-48574874D01*
X137704819Y-48336779D02*
X136704819Y-48336779D01*
X136704819Y-48336779D02*
X136704819Y-48717731D01*
X136704819Y-48717731D02*
X136752438Y-48812969D01*
X136752438Y-48812969D02*
X136800057Y-48860588D01*
X136800057Y-48860588D02*
X136895295Y-48908207D01*
X136895295Y-48908207D02*
X137038152Y-48908207D01*
X137038152Y-48908207D02*
X137133390Y-48860588D01*
X137133390Y-48860588D02*
X137181009Y-48812969D01*
X137181009Y-48812969D02*
X137228628Y-48717731D01*
X137228628Y-48717731D02*
X137228628Y-48336779D01*
X137704819Y-49812969D02*
X137704819Y-49336779D01*
X137704819Y-49336779D02*
X136704819Y-49336779D01*
X136427200Y-48198684D02*
X136427200Y-49808208D01*
X141545180Y-133091792D02*
X142021371Y-133425125D01*
X141545180Y-133663220D02*
X142545180Y-133663220D01*
X142545180Y-133663220D02*
X142545180Y-133282268D01*
X142545180Y-133282268D02*
X142497561Y-133187030D01*
X142497561Y-133187030D02*
X142449942Y-133139411D01*
X142449942Y-133139411D02*
X142354704Y-133091792D01*
X142354704Y-133091792D02*
X142211847Y-133091792D01*
X142211847Y-133091792D02*
X142116609Y-133139411D01*
X142116609Y-133139411D02*
X142068990Y-133187030D01*
X142068990Y-133187030D02*
X142021371Y-133282268D01*
X142021371Y-133282268D02*
X142021371Y-133663220D01*
X141545180Y-132091792D02*
X142021371Y-132425125D01*
X141545180Y-132663220D02*
X142545180Y-132663220D01*
X142545180Y-132663220D02*
X142545180Y-132282268D01*
X142545180Y-132282268D02*
X142497561Y-132187030D01*
X142497561Y-132187030D02*
X142449942Y-132139411D01*
X142449942Y-132139411D02*
X142354704Y-132091792D01*
X142354704Y-132091792D02*
X142211847Y-132091792D01*
X142211847Y-132091792D02*
X142116609Y-132139411D01*
X142116609Y-132139411D02*
X142068990Y-132187030D01*
X142068990Y-132187030D02*
X142021371Y-132282268D01*
X142021371Y-132282268D02*
X142021371Y-132663220D01*
X142822800Y-133801316D02*
X142822800Y-132001316D01*
X119945180Y-133758458D02*
X118945180Y-133520363D01*
X118945180Y-133520363D02*
X119659466Y-133329887D01*
X119659466Y-133329887D02*
X118945180Y-133139411D01*
X118945180Y-133139411D02*
X119945180Y-132901316D01*
X119945180Y-132329887D02*
X119945180Y-132139411D01*
X119945180Y-132139411D02*
X119897561Y-132044173D01*
X119897561Y-132044173D02*
X119802323Y-131948935D01*
X119802323Y-131948935D02*
X119611847Y-131901316D01*
X119611847Y-131901316D02*
X119278514Y-131901316D01*
X119278514Y-131901316D02*
X119088038Y-131948935D01*
X119088038Y-131948935D02*
X118992800Y-132044173D01*
X118992800Y-132044173D02*
X118945180Y-132139411D01*
X118945180Y-132139411D02*
X118945180Y-132329887D01*
X118945180Y-132329887D02*
X118992800Y-132425125D01*
X118992800Y-132425125D02*
X119088038Y-132520363D01*
X119088038Y-132520363D02*
X119278514Y-132567982D01*
X119278514Y-132567982D02*
X119611847Y-132567982D01*
X119611847Y-132567982D02*
X119802323Y-132520363D01*
X119802323Y-132520363D02*
X119897561Y-132425125D01*
X119897561Y-132425125D02*
X119945180Y-132329887D01*
X120222800Y-133801316D02*
X120222800Y-131810840D01*
X94454819Y-48336779D02*
X93454819Y-48336779D01*
X93454819Y-48336779D02*
X93454819Y-48574874D01*
X93454819Y-48574874D02*
X93502438Y-48717731D01*
X93502438Y-48717731D02*
X93597676Y-48812969D01*
X93597676Y-48812969D02*
X93692914Y-48860588D01*
X93692914Y-48860588D02*
X93883390Y-48908207D01*
X93883390Y-48908207D02*
X94026247Y-48908207D01*
X94026247Y-48908207D02*
X94216723Y-48860588D01*
X94216723Y-48860588D02*
X94311961Y-48812969D01*
X94311961Y-48812969D02*
X94407200Y-48717731D01*
X94407200Y-48717731D02*
X94454819Y-48574874D01*
X94454819Y-48574874D02*
X94454819Y-48336779D01*
X93454819Y-49241541D02*
X93454819Y-49908207D01*
X93454819Y-49908207D02*
X94454819Y-49479636D01*
X104654819Y-48336779D02*
X103654819Y-48336779D01*
X103654819Y-48336779D02*
X103654819Y-48574874D01*
X103654819Y-48574874D02*
X103702438Y-48717731D01*
X103702438Y-48717731D02*
X103797676Y-48812969D01*
X103797676Y-48812969D02*
X103892914Y-48860588D01*
X103892914Y-48860588D02*
X104083390Y-48908207D01*
X104083390Y-48908207D02*
X104226247Y-48908207D01*
X104226247Y-48908207D02*
X104416723Y-48860588D01*
X104416723Y-48860588D02*
X104511961Y-48812969D01*
X104511961Y-48812969D02*
X104607200Y-48717731D01*
X104607200Y-48717731D02*
X104654819Y-48574874D01*
X104654819Y-48574874D02*
X104654819Y-48336779D01*
X103654819Y-49241541D02*
X103654819Y-49860588D01*
X103654819Y-49860588D02*
X104035771Y-49527255D01*
X104035771Y-49527255D02*
X104035771Y-49670112D01*
X104035771Y-49670112D02*
X104083390Y-49765350D01*
X104083390Y-49765350D02*
X104131009Y-49812969D01*
X104131009Y-49812969D02*
X104226247Y-49860588D01*
X104226247Y-49860588D02*
X104464342Y-49860588D01*
X104464342Y-49860588D02*
X104559580Y-49812969D01*
X104559580Y-49812969D02*
X104607200Y-49765350D01*
X104607200Y-49765350D02*
X104654819Y-49670112D01*
X104654819Y-49670112D02*
X104654819Y-49384398D01*
X104654819Y-49384398D02*
X104607200Y-49289160D01*
X104607200Y-49289160D02*
X104559580Y-49241541D01*
X106245180Y-133663220D02*
X107245180Y-133663220D01*
X107245180Y-133663220D02*
X107245180Y-133425125D01*
X107245180Y-133425125D02*
X107197561Y-133282268D01*
X107197561Y-133282268D02*
X107102323Y-133187030D01*
X107102323Y-133187030D02*
X107007085Y-133139411D01*
X107007085Y-133139411D02*
X106816609Y-133091792D01*
X106816609Y-133091792D02*
X106673752Y-133091792D01*
X106673752Y-133091792D02*
X106483276Y-133139411D01*
X106483276Y-133139411D02*
X106388038Y-133187030D01*
X106388038Y-133187030D02*
X106292800Y-133282268D01*
X106292800Y-133282268D02*
X106245180Y-133425125D01*
X106245180Y-133425125D02*
X106245180Y-133663220D01*
X107149942Y-132710839D02*
X107197561Y-132663220D01*
X107197561Y-132663220D02*
X107245180Y-132567982D01*
X107245180Y-132567982D02*
X107245180Y-132329887D01*
X107245180Y-132329887D02*
X107197561Y-132234649D01*
X107197561Y-132234649D02*
X107149942Y-132187030D01*
X107149942Y-132187030D02*
X107054704Y-132139411D01*
X107054704Y-132139411D02*
X106959466Y-132139411D01*
X106959466Y-132139411D02*
X106816609Y-132187030D01*
X106816609Y-132187030D02*
X106245180Y-132758458D01*
X106245180Y-132758458D02*
X106245180Y-132139411D01*
X101245180Y-133663220D02*
X102245180Y-133663220D01*
X102245180Y-133663220D02*
X102245180Y-133425125D01*
X102245180Y-133425125D02*
X102197561Y-133282268D01*
X102197561Y-133282268D02*
X102102323Y-133187030D01*
X102102323Y-133187030D02*
X102007085Y-133139411D01*
X102007085Y-133139411D02*
X101816609Y-133091792D01*
X101816609Y-133091792D02*
X101673752Y-133091792D01*
X101673752Y-133091792D02*
X101483276Y-133139411D01*
X101483276Y-133139411D02*
X101388038Y-133187030D01*
X101388038Y-133187030D02*
X101292800Y-133282268D01*
X101292800Y-133282268D02*
X101245180Y-133425125D01*
X101245180Y-133425125D02*
X101245180Y-133663220D01*
X101911847Y-132234649D02*
X101245180Y-132234649D01*
X102292800Y-132472744D02*
X101578514Y-132710839D01*
X101578514Y-132710839D02*
X101578514Y-132091792D01*
X173254819Y-48336779D02*
X172254819Y-48336779D01*
X172254819Y-48336779D02*
X172254819Y-48717731D01*
X172254819Y-48717731D02*
X172302438Y-48812969D01*
X172302438Y-48812969D02*
X172350057Y-48860588D01*
X172350057Y-48860588D02*
X172445295Y-48908207D01*
X172445295Y-48908207D02*
X172588152Y-48908207D01*
X172588152Y-48908207D02*
X172683390Y-48860588D01*
X172683390Y-48860588D02*
X172731009Y-48812969D01*
X172731009Y-48812969D02*
X172778628Y-48717731D01*
X172778628Y-48717731D02*
X172778628Y-48336779D01*
X173254819Y-49336779D02*
X172254819Y-49336779D01*
X172345180Y-133663220D02*
X173345180Y-133663220D01*
X173345180Y-133663220D02*
X173345180Y-133282268D01*
X173345180Y-133282268D02*
X173297561Y-133187030D01*
X173297561Y-133187030D02*
X173249942Y-133139411D01*
X173249942Y-133139411D02*
X173154704Y-133091792D01*
X173154704Y-133091792D02*
X173011847Y-133091792D01*
X173011847Y-133091792D02*
X172916609Y-133139411D01*
X172916609Y-133139411D02*
X172868990Y-133187030D01*
X172868990Y-133187030D02*
X172821371Y-133282268D01*
X172821371Y-133282268D02*
X172821371Y-133663220D01*
X172345180Y-132663220D02*
X173345180Y-132663220D01*
X170654819Y-48336779D02*
X169654819Y-48336779D01*
X169654819Y-48336779D02*
X170654819Y-48908207D01*
X170654819Y-48908207D02*
X169654819Y-48908207D01*
X167768990Y-133329887D02*
X167768990Y-133663220D01*
X167245180Y-133663220D02*
X168245180Y-133663220D01*
X168245180Y-133663220D02*
X168245180Y-133187030D01*
X167245180Y-132329887D02*
X167245180Y-132806077D01*
X167245180Y-132806077D02*
X168245180Y-132806077D01*
X108845180Y-133663220D02*
X109845180Y-133663220D01*
X109845180Y-133663220D02*
X109845180Y-133425125D01*
X109845180Y-133425125D02*
X109797561Y-133282268D01*
X109797561Y-133282268D02*
X109702323Y-133187030D01*
X109702323Y-133187030D02*
X109607085Y-133139411D01*
X109607085Y-133139411D02*
X109416609Y-133091792D01*
X109416609Y-133091792D02*
X109273752Y-133091792D01*
X109273752Y-133091792D02*
X109083276Y-133139411D01*
X109083276Y-133139411D02*
X108988038Y-133187030D01*
X108988038Y-133187030D02*
X108892800Y-133282268D01*
X108892800Y-133282268D02*
X108845180Y-133425125D01*
X108845180Y-133425125D02*
X108845180Y-133663220D01*
X108845180Y-132139411D02*
X108845180Y-132710839D01*
X108845180Y-132425125D02*
X109845180Y-132425125D01*
X109845180Y-132425125D02*
X109702323Y-132520363D01*
X109702323Y-132520363D02*
X109607085Y-132615601D01*
X109607085Y-132615601D02*
X109559466Y-132710839D01*
X99554819Y-48336779D02*
X98554819Y-48336779D01*
X98554819Y-48336779D02*
X98554819Y-48574874D01*
X98554819Y-48574874D02*
X98602438Y-48717731D01*
X98602438Y-48717731D02*
X98697676Y-48812969D01*
X98697676Y-48812969D02*
X98792914Y-48860588D01*
X98792914Y-48860588D02*
X98983390Y-48908207D01*
X98983390Y-48908207D02*
X99126247Y-48908207D01*
X99126247Y-48908207D02*
X99316723Y-48860588D01*
X99316723Y-48860588D02*
X99411961Y-48812969D01*
X99411961Y-48812969D02*
X99507200Y-48717731D01*
X99507200Y-48717731D02*
X99554819Y-48574874D01*
X99554819Y-48574874D02*
X99554819Y-48336779D01*
X98554819Y-49812969D02*
X98554819Y-49336779D01*
X98554819Y-49336779D02*
X99031009Y-49289160D01*
X99031009Y-49289160D02*
X98983390Y-49336779D01*
X98983390Y-49336779D02*
X98935771Y-49432017D01*
X98935771Y-49432017D02*
X98935771Y-49670112D01*
X98935771Y-49670112D02*
X98983390Y-49765350D01*
X98983390Y-49765350D02*
X99031009Y-49812969D01*
X99031009Y-49812969D02*
X99126247Y-49860588D01*
X99126247Y-49860588D02*
X99364342Y-49860588D01*
X99364342Y-49860588D02*
X99459580Y-49812969D01*
X99459580Y-49812969D02*
X99507200Y-49765350D01*
X99507200Y-49765350D02*
X99554819Y-49670112D01*
X99554819Y-49670112D02*
X99554819Y-49432017D01*
X99554819Y-49432017D02*
X99507200Y-49336779D01*
X99507200Y-49336779D02*
X99459580Y-49289160D01*
X88926133Y-133913220D02*
X88926133Y-133151316D01*
X88545180Y-133532268D02*
X89307085Y-133532268D01*
X89545180Y-132198935D02*
X89545180Y-132675125D01*
X89545180Y-132675125D02*
X89068990Y-132722744D01*
X89068990Y-132722744D02*
X89116609Y-132675125D01*
X89116609Y-132675125D02*
X89164228Y-132579887D01*
X89164228Y-132579887D02*
X89164228Y-132341792D01*
X89164228Y-132341792D02*
X89116609Y-132246554D01*
X89116609Y-132246554D02*
X89068990Y-132198935D01*
X89068990Y-132198935D02*
X88973752Y-132151316D01*
X88973752Y-132151316D02*
X88735657Y-132151316D01*
X88735657Y-132151316D02*
X88640419Y-132198935D01*
X88640419Y-132198935D02*
X88592800Y-132246554D01*
X88592800Y-132246554D02*
X88545180Y-132341792D01*
X88545180Y-132341792D02*
X88545180Y-132579887D01*
X88545180Y-132579887D02*
X88592800Y-132675125D01*
X88592800Y-132675125D02*
X88640419Y-132722744D01*
X89545180Y-131865601D02*
X88545180Y-131532268D01*
X88545180Y-131532268D02*
X89545180Y-131198935D01*
X96145180Y-133663220D02*
X97145180Y-133663220D01*
X97145180Y-133663220D02*
X97145180Y-133425125D01*
X97145180Y-133425125D02*
X97097561Y-133282268D01*
X97097561Y-133282268D02*
X97002323Y-133187030D01*
X97002323Y-133187030D02*
X96907085Y-133139411D01*
X96907085Y-133139411D02*
X96716609Y-133091792D01*
X96716609Y-133091792D02*
X96573752Y-133091792D01*
X96573752Y-133091792D02*
X96383276Y-133139411D01*
X96383276Y-133139411D02*
X96288038Y-133187030D01*
X96288038Y-133187030D02*
X96192800Y-133282268D01*
X96192800Y-133282268D02*
X96145180Y-133425125D01*
X96145180Y-133425125D02*
X96145180Y-133663220D01*
X97145180Y-132234649D02*
X97145180Y-132425125D01*
X97145180Y-132425125D02*
X97097561Y-132520363D01*
X97097561Y-132520363D02*
X97049942Y-132567982D01*
X97049942Y-132567982D02*
X96907085Y-132663220D01*
X96907085Y-132663220D02*
X96716609Y-132710839D01*
X96716609Y-132710839D02*
X96335657Y-132710839D01*
X96335657Y-132710839D02*
X96240419Y-132663220D01*
X96240419Y-132663220D02*
X96192800Y-132615601D01*
X96192800Y-132615601D02*
X96145180Y-132520363D01*
X96145180Y-132520363D02*
X96145180Y-132329887D01*
X96145180Y-132329887D02*
X96192800Y-132234649D01*
X96192800Y-132234649D02*
X96240419Y-132187030D01*
X96240419Y-132187030D02*
X96335657Y-132139411D01*
X96335657Y-132139411D02*
X96573752Y-132139411D01*
X96573752Y-132139411D02*
X96668990Y-132187030D01*
X96668990Y-132187030D02*
X96716609Y-132234649D01*
X96716609Y-132234649D02*
X96764228Y-132329887D01*
X96764228Y-132329887D02*
X96764228Y-132520363D01*
X96764228Y-132520363D02*
X96716609Y-132615601D01*
X96716609Y-132615601D02*
X96668990Y-132663220D01*
X96668990Y-132663220D02*
X96573752Y-132710839D01*
X185573866Y-48336779D02*
X185573866Y-49098684D01*
X185954819Y-48717731D02*
X185192914Y-48717731D01*
X184954819Y-50051064D02*
X184954819Y-49574874D01*
X184954819Y-49574874D02*
X185431009Y-49527255D01*
X185431009Y-49527255D02*
X185383390Y-49574874D01*
X185383390Y-49574874D02*
X185335771Y-49670112D01*
X185335771Y-49670112D02*
X185335771Y-49908207D01*
X185335771Y-49908207D02*
X185383390Y-50003445D01*
X185383390Y-50003445D02*
X185431009Y-50051064D01*
X185431009Y-50051064D02*
X185526247Y-50098683D01*
X185526247Y-50098683D02*
X185764342Y-50098683D01*
X185764342Y-50098683D02*
X185859580Y-50051064D01*
X185859580Y-50051064D02*
X185907200Y-50003445D01*
X185907200Y-50003445D02*
X185954819Y-49908207D01*
X185954819Y-49908207D02*
X185954819Y-49670112D01*
X185954819Y-49670112D02*
X185907200Y-49574874D01*
X185907200Y-49574874D02*
X185859580Y-49527255D01*
X184954819Y-50384398D02*
X185954819Y-50717731D01*
X185954819Y-50717731D02*
X184954819Y-51051064D01*
X91954819Y-48908207D02*
X91478628Y-48574874D01*
X91954819Y-48336779D02*
X90954819Y-48336779D01*
X90954819Y-48336779D02*
X90954819Y-48717731D01*
X90954819Y-48717731D02*
X91002438Y-48812969D01*
X91002438Y-48812969D02*
X91050057Y-48860588D01*
X91050057Y-48860588D02*
X91145295Y-48908207D01*
X91145295Y-48908207D02*
X91288152Y-48908207D01*
X91288152Y-48908207D02*
X91383390Y-48860588D01*
X91383390Y-48860588D02*
X91431009Y-48812969D01*
X91431009Y-48812969D02*
X91478628Y-48717731D01*
X91478628Y-48717731D02*
X91478628Y-48336779D01*
X91907200Y-49289160D02*
X91954819Y-49432017D01*
X91954819Y-49432017D02*
X91954819Y-49670112D01*
X91954819Y-49670112D02*
X91907200Y-49765350D01*
X91907200Y-49765350D02*
X91859580Y-49812969D01*
X91859580Y-49812969D02*
X91764342Y-49860588D01*
X91764342Y-49860588D02*
X91669104Y-49860588D01*
X91669104Y-49860588D02*
X91573866Y-49812969D01*
X91573866Y-49812969D02*
X91526247Y-49765350D01*
X91526247Y-49765350D02*
X91478628Y-49670112D01*
X91478628Y-49670112D02*
X91431009Y-49479636D01*
X91431009Y-49479636D02*
X91383390Y-49384398D01*
X91383390Y-49384398D02*
X91335771Y-49336779D01*
X91335771Y-49336779D02*
X91240533Y-49289160D01*
X91240533Y-49289160D02*
X91145295Y-49289160D01*
X91145295Y-49289160D02*
X91050057Y-49336779D01*
X91050057Y-49336779D02*
X91002438Y-49384398D01*
X91002438Y-49384398D02*
X90954819Y-49479636D01*
X90954819Y-49479636D02*
X90954819Y-49717731D01*
X90954819Y-49717731D02*
X91002438Y-49860588D01*
X90954819Y-50146303D02*
X90954819Y-50717731D01*
X91954819Y-50432017D02*
X90954819Y-50432017D01*
X90677200Y-48198684D02*
X90677200Y-50712970D01*
X165168990Y-133329887D02*
X165121371Y-133187030D01*
X165121371Y-133187030D02*
X165073752Y-133139411D01*
X165073752Y-133139411D02*
X164978514Y-133091792D01*
X164978514Y-133091792D02*
X164835657Y-133091792D01*
X164835657Y-133091792D02*
X164740419Y-133139411D01*
X164740419Y-133139411D02*
X164692800Y-133187030D01*
X164692800Y-133187030D02*
X164645180Y-133282268D01*
X164645180Y-133282268D02*
X164645180Y-133663220D01*
X164645180Y-133663220D02*
X165645180Y-133663220D01*
X165645180Y-133663220D02*
X165645180Y-133329887D01*
X165645180Y-133329887D02*
X165597561Y-133234649D01*
X165597561Y-133234649D02*
X165549942Y-133187030D01*
X165549942Y-133187030D02*
X165454704Y-133139411D01*
X165454704Y-133139411D02*
X165359466Y-133139411D01*
X165359466Y-133139411D02*
X165264228Y-133187030D01*
X165264228Y-133187030D02*
X165216609Y-133234649D01*
X165216609Y-133234649D02*
X165168990Y-133329887D01*
X165168990Y-133329887D02*
X165168990Y-133663220D01*
X164645180Y-132663220D02*
X165645180Y-132663220D01*
X139045180Y-133091792D02*
X139521371Y-133425125D01*
X139045180Y-133663220D02*
X140045180Y-133663220D01*
X140045180Y-133663220D02*
X140045180Y-133282268D01*
X140045180Y-133282268D02*
X139997561Y-133187030D01*
X139997561Y-133187030D02*
X139949942Y-133139411D01*
X139949942Y-133139411D02*
X139854704Y-133091792D01*
X139854704Y-133091792D02*
X139711847Y-133091792D01*
X139711847Y-133091792D02*
X139616609Y-133139411D01*
X139616609Y-133139411D02*
X139568990Y-133187030D01*
X139568990Y-133187030D02*
X139521371Y-133282268D01*
X139521371Y-133282268D02*
X139521371Y-133663220D01*
X139045180Y-132663220D02*
X140045180Y-132663220D01*
X140045180Y-132663220D02*
X140045180Y-132282268D01*
X140045180Y-132282268D02*
X139997561Y-132187030D01*
X139997561Y-132187030D02*
X139949942Y-132139411D01*
X139949942Y-132139411D02*
X139854704Y-132091792D01*
X139854704Y-132091792D02*
X139711847Y-132091792D01*
X139711847Y-132091792D02*
X139616609Y-132139411D01*
X139616609Y-132139411D02*
X139568990Y-132187030D01*
X139568990Y-132187030D02*
X139521371Y-132282268D01*
X139521371Y-132282268D02*
X139521371Y-132663220D01*
X140322800Y-133801316D02*
X140322800Y-132001316D01*
X152468990Y-133329887D02*
X152468990Y-133663220D01*
X151945180Y-133663220D02*
X152945180Y-133663220D01*
X152945180Y-133663220D02*
X152945180Y-133187030D01*
X152945180Y-132901315D02*
X152945180Y-132234649D01*
X152945180Y-132234649D02*
X151945180Y-132901315D01*
X151945180Y-132901315D02*
X151945180Y-132234649D01*
X160454819Y-48336779D02*
X159454819Y-48336779D01*
X159454819Y-48336779D02*
X160169104Y-48670112D01*
X160169104Y-48670112D02*
X159454819Y-49003445D01*
X159454819Y-49003445D02*
X160454819Y-49003445D01*
X160169104Y-49432017D02*
X160169104Y-49908207D01*
X160454819Y-49336779D02*
X159454819Y-49670112D01*
X159454819Y-49670112D02*
X160454819Y-50003445D01*
X89073866Y-48086779D02*
X89073866Y-48848684D01*
X89454819Y-48467731D02*
X88692914Y-48467731D01*
X88454819Y-49801064D02*
X88454819Y-49324874D01*
X88454819Y-49324874D02*
X88931009Y-49277255D01*
X88931009Y-49277255D02*
X88883390Y-49324874D01*
X88883390Y-49324874D02*
X88835771Y-49420112D01*
X88835771Y-49420112D02*
X88835771Y-49658207D01*
X88835771Y-49658207D02*
X88883390Y-49753445D01*
X88883390Y-49753445D02*
X88931009Y-49801064D01*
X88931009Y-49801064D02*
X89026247Y-49848683D01*
X89026247Y-49848683D02*
X89264342Y-49848683D01*
X89264342Y-49848683D02*
X89359580Y-49801064D01*
X89359580Y-49801064D02*
X89407200Y-49753445D01*
X89407200Y-49753445D02*
X89454819Y-49658207D01*
X89454819Y-49658207D02*
X89454819Y-49420112D01*
X89454819Y-49420112D02*
X89407200Y-49324874D01*
X89407200Y-49324874D02*
X89359580Y-49277255D01*
X88454819Y-50134398D02*
X89454819Y-50467731D01*
X89454819Y-50467731D02*
X88454819Y-50801064D01*
X112254819Y-48336779D02*
X111254819Y-48336779D01*
X111254819Y-48336779D02*
X111254819Y-48574874D01*
X111254819Y-48574874D02*
X111302438Y-48717731D01*
X111302438Y-48717731D02*
X111397676Y-48812969D01*
X111397676Y-48812969D02*
X111492914Y-48860588D01*
X111492914Y-48860588D02*
X111683390Y-48908207D01*
X111683390Y-48908207D02*
X111826247Y-48908207D01*
X111826247Y-48908207D02*
X112016723Y-48860588D01*
X112016723Y-48860588D02*
X112111961Y-48812969D01*
X112111961Y-48812969D02*
X112207200Y-48717731D01*
X112207200Y-48717731D02*
X112254819Y-48574874D01*
X112254819Y-48574874D02*
X112254819Y-48336779D01*
X111254819Y-49527255D02*
X111254819Y-49622493D01*
X111254819Y-49622493D02*
X111302438Y-49717731D01*
X111302438Y-49717731D02*
X111350057Y-49765350D01*
X111350057Y-49765350D02*
X111445295Y-49812969D01*
X111445295Y-49812969D02*
X111635771Y-49860588D01*
X111635771Y-49860588D02*
X111873866Y-49860588D01*
X111873866Y-49860588D02*
X112064342Y-49812969D01*
X112064342Y-49812969D02*
X112159580Y-49765350D01*
X112159580Y-49765350D02*
X112207200Y-49717731D01*
X112207200Y-49717731D02*
X112254819Y-49622493D01*
X112254819Y-49622493D02*
X112254819Y-49527255D01*
X112254819Y-49527255D02*
X112207200Y-49432017D01*
X112207200Y-49432017D02*
X112159580Y-49384398D01*
X112159580Y-49384398D02*
X112064342Y-49336779D01*
X112064342Y-49336779D02*
X111873866Y-49289160D01*
X111873866Y-49289160D02*
X111635771Y-49289160D01*
X111635771Y-49289160D02*
X111445295Y-49336779D01*
X111445295Y-49336779D02*
X111350057Y-49384398D01*
X111350057Y-49384398D02*
X111302438Y-49432017D01*
X111302438Y-49432017D02*
X111254819Y-49527255D01*
X142704819Y-48908207D02*
X142228628Y-48574874D01*
X142704819Y-48336779D02*
X141704819Y-48336779D01*
X141704819Y-48336779D02*
X141704819Y-48717731D01*
X141704819Y-48717731D02*
X141752438Y-48812969D01*
X141752438Y-48812969D02*
X141800057Y-48860588D01*
X141800057Y-48860588D02*
X141895295Y-48908207D01*
X141895295Y-48908207D02*
X142038152Y-48908207D01*
X142038152Y-48908207D02*
X142133390Y-48860588D01*
X142133390Y-48860588D02*
X142181009Y-48812969D01*
X142181009Y-48812969D02*
X142228628Y-48717731D01*
X142228628Y-48717731D02*
X142228628Y-48336779D01*
X142704819Y-49908207D02*
X142228628Y-49574874D01*
X142704819Y-49336779D02*
X141704819Y-49336779D01*
X141704819Y-49336779D02*
X141704819Y-49717731D01*
X141704819Y-49717731D02*
X141752438Y-49812969D01*
X141752438Y-49812969D02*
X141800057Y-49860588D01*
X141800057Y-49860588D02*
X141895295Y-49908207D01*
X141895295Y-49908207D02*
X142038152Y-49908207D01*
X142038152Y-49908207D02*
X142133390Y-49860588D01*
X142133390Y-49860588D02*
X142181009Y-49812969D01*
X142181009Y-49812969D02*
X142228628Y-49717731D01*
X142228628Y-49717731D02*
X142228628Y-49336779D01*
X141427200Y-48198684D02*
X141427200Y-49998684D01*
X117445180Y-133758458D02*
X116445180Y-133520363D01*
X116445180Y-133520363D02*
X117159466Y-133329887D01*
X117159466Y-133329887D02*
X116445180Y-133139411D01*
X116445180Y-133139411D02*
X117445180Y-132901316D01*
X116968990Y-132187030D02*
X116921371Y-132044173D01*
X116921371Y-132044173D02*
X116873752Y-131996554D01*
X116873752Y-131996554D02*
X116778514Y-131948935D01*
X116778514Y-131948935D02*
X116635657Y-131948935D01*
X116635657Y-131948935D02*
X116540419Y-131996554D01*
X116540419Y-131996554D02*
X116492800Y-132044173D01*
X116492800Y-132044173D02*
X116445180Y-132139411D01*
X116445180Y-132139411D02*
X116445180Y-132520363D01*
X116445180Y-132520363D02*
X117445180Y-132520363D01*
X117445180Y-132520363D02*
X117445180Y-132187030D01*
X117445180Y-132187030D02*
X117397561Y-132091792D01*
X117397561Y-132091792D02*
X117349942Y-132044173D01*
X117349942Y-132044173D02*
X117254704Y-131996554D01*
X117254704Y-131996554D02*
X117159466Y-131996554D01*
X117159466Y-131996554D02*
X117064228Y-132044173D01*
X117064228Y-132044173D02*
X117016609Y-132091792D01*
X117016609Y-132091792D02*
X116968990Y-132187030D01*
X116968990Y-132187030D02*
X116968990Y-132520363D01*
X117722800Y-133801316D02*
X117722800Y-131858459D01*
X129054819Y-48241541D02*
X130054819Y-48479636D01*
X130054819Y-48479636D02*
X129340533Y-48670112D01*
X129340533Y-48670112D02*
X130054819Y-48860588D01*
X130054819Y-48860588D02*
X129054819Y-49098684D01*
X130054819Y-49479636D02*
X129054819Y-49479636D01*
X128777200Y-48198684D02*
X128777200Y-49617731D01*
X111345180Y-133663220D02*
X112345180Y-133663220D01*
X112345180Y-133663220D02*
X112345180Y-133425125D01*
X112345180Y-133425125D02*
X112297561Y-133282268D01*
X112297561Y-133282268D02*
X112202323Y-133187030D01*
X112202323Y-133187030D02*
X112107085Y-133139411D01*
X112107085Y-133139411D02*
X111916609Y-133091792D01*
X111916609Y-133091792D02*
X111773752Y-133091792D01*
X111773752Y-133091792D02*
X111583276Y-133139411D01*
X111583276Y-133139411D02*
X111488038Y-133187030D01*
X111488038Y-133187030D02*
X111392800Y-133282268D01*
X111392800Y-133282268D02*
X111345180Y-133425125D01*
X111345180Y-133425125D02*
X111345180Y-133663220D01*
X112345180Y-132472744D02*
X112345180Y-132377506D01*
X112345180Y-132377506D02*
X112297561Y-132282268D01*
X112297561Y-132282268D02*
X112249942Y-132234649D01*
X112249942Y-132234649D02*
X112154704Y-132187030D01*
X112154704Y-132187030D02*
X111964228Y-132139411D01*
X111964228Y-132139411D02*
X111726133Y-132139411D01*
X111726133Y-132139411D02*
X111535657Y-132187030D01*
X111535657Y-132187030D02*
X111440419Y-132234649D01*
X111440419Y-132234649D02*
X111392800Y-132282268D01*
X111392800Y-132282268D02*
X111345180Y-132377506D01*
X111345180Y-132377506D02*
X111345180Y-132472744D01*
X111345180Y-132472744D02*
X111392800Y-132567982D01*
X111392800Y-132567982D02*
X111440419Y-132615601D01*
X111440419Y-132615601D02*
X111535657Y-132663220D01*
X111535657Y-132663220D02*
X111726133Y-132710839D01*
X111726133Y-132710839D02*
X111964228Y-132710839D01*
X111964228Y-132710839D02*
X112154704Y-132663220D01*
X112154704Y-132663220D02*
X112249942Y-132615601D01*
X112249942Y-132615601D02*
X112297561Y-132567982D01*
X112297561Y-132567982D02*
X112345180Y-132472744D01*
X169745180Y-133663220D02*
X170745180Y-133663220D01*
X170745180Y-133663220D02*
X169745180Y-133091792D01*
X169745180Y-133091792D02*
X170745180Y-133091792D01*
X162240419Y-133091792D02*
X162192800Y-133139411D01*
X162192800Y-133139411D02*
X162145180Y-133282268D01*
X162145180Y-133282268D02*
X162145180Y-133377506D01*
X162145180Y-133377506D02*
X162192800Y-133520363D01*
X162192800Y-133520363D02*
X162288038Y-133615601D01*
X162288038Y-133615601D02*
X162383276Y-133663220D01*
X162383276Y-133663220D02*
X162573752Y-133710839D01*
X162573752Y-133710839D02*
X162716609Y-133710839D01*
X162716609Y-133710839D02*
X162907085Y-133663220D01*
X162907085Y-133663220D02*
X163002323Y-133615601D01*
X163002323Y-133615601D02*
X163097561Y-133520363D01*
X163097561Y-133520363D02*
X163145180Y-133377506D01*
X163145180Y-133377506D02*
X163145180Y-133282268D01*
X163145180Y-133282268D02*
X163097561Y-133139411D01*
X163097561Y-133139411D02*
X163049942Y-133091792D01*
X162145180Y-132663220D02*
X163145180Y-132663220D01*
X178454819Y-48812969D02*
X178454819Y-48336779D01*
X178454819Y-48336779D02*
X177454819Y-48336779D01*
X178454819Y-49146303D02*
X177454819Y-49146303D01*
X177454819Y-49146303D02*
X177454819Y-49384398D01*
X177454819Y-49384398D02*
X177502438Y-49527255D01*
X177502438Y-49527255D02*
X177597676Y-49622493D01*
X177597676Y-49622493D02*
X177692914Y-49670112D01*
X177692914Y-49670112D02*
X177883390Y-49717731D01*
X177883390Y-49717731D02*
X178026247Y-49717731D01*
X178026247Y-49717731D02*
X178216723Y-49670112D01*
X178216723Y-49670112D02*
X178311961Y-49622493D01*
X178311961Y-49622493D02*
X178407200Y-49527255D01*
X178407200Y-49527255D02*
X178454819Y-49384398D01*
X178454819Y-49384398D02*
X178454819Y-49146303D01*
X178073866Y-50146303D02*
X178073866Y-50908208D01*
X178359580Y-51955826D02*
X178407200Y-51908207D01*
X178407200Y-51908207D02*
X178454819Y-51765350D01*
X178454819Y-51765350D02*
X178454819Y-51670112D01*
X178454819Y-51670112D02*
X178407200Y-51527255D01*
X178407200Y-51527255D02*
X178311961Y-51432017D01*
X178311961Y-51432017D02*
X178216723Y-51384398D01*
X178216723Y-51384398D02*
X178026247Y-51336779D01*
X178026247Y-51336779D02*
X177883390Y-51336779D01*
X177883390Y-51336779D02*
X177692914Y-51384398D01*
X177692914Y-51384398D02*
X177597676Y-51432017D01*
X177597676Y-51432017D02*
X177502438Y-51527255D01*
X177502438Y-51527255D02*
X177454819Y-51670112D01*
X177454819Y-51670112D02*
X177454819Y-51765350D01*
X177454819Y-51765350D02*
X177502438Y-51908207D01*
X177502438Y-51908207D02*
X177550057Y-51955826D01*
X132654819Y-48908207D02*
X132178628Y-48574874D01*
X132654819Y-48336779D02*
X131654819Y-48336779D01*
X131654819Y-48336779D02*
X131654819Y-48717731D01*
X131654819Y-48717731D02*
X131702438Y-48812969D01*
X131702438Y-48812969D02*
X131750057Y-48860588D01*
X131750057Y-48860588D02*
X131845295Y-48908207D01*
X131845295Y-48908207D02*
X131988152Y-48908207D01*
X131988152Y-48908207D02*
X132083390Y-48860588D01*
X132083390Y-48860588D02*
X132131009Y-48812969D01*
X132131009Y-48812969D02*
X132178628Y-48717731D01*
X132178628Y-48717731D02*
X132178628Y-48336779D01*
X132369104Y-49289160D02*
X132369104Y-49765350D01*
X132654819Y-49193922D02*
X131654819Y-49527255D01*
X131654819Y-49527255D02*
X132654819Y-49860588D01*
X131377200Y-48198684D02*
X131377200Y-49855827D01*
X91045180Y-133091792D02*
X91521371Y-133425125D01*
X91045180Y-133663220D02*
X92045180Y-133663220D01*
X92045180Y-133663220D02*
X92045180Y-133282268D01*
X92045180Y-133282268D02*
X91997561Y-133187030D01*
X91997561Y-133187030D02*
X91949942Y-133139411D01*
X91949942Y-133139411D02*
X91854704Y-133091792D01*
X91854704Y-133091792D02*
X91711847Y-133091792D01*
X91711847Y-133091792D02*
X91616609Y-133139411D01*
X91616609Y-133139411D02*
X91568990Y-133187030D01*
X91568990Y-133187030D02*
X91521371Y-133282268D01*
X91521371Y-133282268D02*
X91521371Y-133663220D01*
X91092800Y-132710839D02*
X91045180Y-132567982D01*
X91045180Y-132567982D02*
X91045180Y-132329887D01*
X91045180Y-132329887D02*
X91092800Y-132234649D01*
X91092800Y-132234649D02*
X91140419Y-132187030D01*
X91140419Y-132187030D02*
X91235657Y-132139411D01*
X91235657Y-132139411D02*
X91330895Y-132139411D01*
X91330895Y-132139411D02*
X91426133Y-132187030D01*
X91426133Y-132187030D02*
X91473752Y-132234649D01*
X91473752Y-132234649D02*
X91521371Y-132329887D01*
X91521371Y-132329887D02*
X91568990Y-132520363D01*
X91568990Y-132520363D02*
X91616609Y-132615601D01*
X91616609Y-132615601D02*
X91664228Y-132663220D01*
X91664228Y-132663220D02*
X91759466Y-132710839D01*
X91759466Y-132710839D02*
X91854704Y-132710839D01*
X91854704Y-132710839D02*
X91949942Y-132663220D01*
X91949942Y-132663220D02*
X91997561Y-132615601D01*
X91997561Y-132615601D02*
X92045180Y-132520363D01*
X92045180Y-132520363D02*
X92045180Y-132282268D01*
X92045180Y-132282268D02*
X91997561Y-132139411D01*
X92045180Y-131853696D02*
X92045180Y-131282268D01*
X91045180Y-131567982D02*
X92045180Y-131567982D01*
X92322800Y-133801316D02*
X92322800Y-131287030D01*
X185426133Y-133663220D02*
X185426133Y-132901316D01*
X185045180Y-133282268D02*
X185807085Y-133282268D01*
X186045180Y-131948935D02*
X186045180Y-132425125D01*
X186045180Y-132425125D02*
X185568990Y-132472744D01*
X185568990Y-132472744D02*
X185616609Y-132425125D01*
X185616609Y-132425125D02*
X185664228Y-132329887D01*
X185664228Y-132329887D02*
X185664228Y-132091792D01*
X185664228Y-132091792D02*
X185616609Y-131996554D01*
X185616609Y-131996554D02*
X185568990Y-131948935D01*
X185568990Y-131948935D02*
X185473752Y-131901316D01*
X185473752Y-131901316D02*
X185235657Y-131901316D01*
X185235657Y-131901316D02*
X185140419Y-131948935D01*
X185140419Y-131948935D02*
X185092800Y-131996554D01*
X185092800Y-131996554D02*
X185045180Y-132091792D01*
X185045180Y-132091792D02*
X185045180Y-132329887D01*
X185045180Y-132329887D02*
X185092800Y-132425125D01*
X185092800Y-132425125D02*
X185140419Y-132472744D01*
X186045180Y-131615601D02*
X185045180Y-131282268D01*
X185045180Y-131282268D02*
X186045180Y-130948935D01*
X162959580Y-48908207D02*
X163007200Y-48860588D01*
X163007200Y-48860588D02*
X163054819Y-48717731D01*
X163054819Y-48717731D02*
X163054819Y-48622493D01*
X163054819Y-48622493D02*
X163007200Y-48479636D01*
X163007200Y-48479636D02*
X162911961Y-48384398D01*
X162911961Y-48384398D02*
X162816723Y-48336779D01*
X162816723Y-48336779D02*
X162626247Y-48289160D01*
X162626247Y-48289160D02*
X162483390Y-48289160D01*
X162483390Y-48289160D02*
X162292914Y-48336779D01*
X162292914Y-48336779D02*
X162197676Y-48384398D01*
X162197676Y-48384398D02*
X162102438Y-48479636D01*
X162102438Y-48479636D02*
X162054819Y-48622493D01*
X162054819Y-48622493D02*
X162054819Y-48717731D01*
X162054819Y-48717731D02*
X162102438Y-48860588D01*
X162102438Y-48860588D02*
X162150057Y-48908207D01*
X163054819Y-49336779D02*
X162054819Y-49336779D01*
X149968990Y-133329887D02*
X149968990Y-133663220D01*
X149445180Y-133663220D02*
X150445180Y-133663220D01*
X150445180Y-133663220D02*
X150445180Y-133187030D01*
X149540419Y-132234649D02*
X149492800Y-132282268D01*
X149492800Y-132282268D02*
X149445180Y-132425125D01*
X149445180Y-132425125D02*
X149445180Y-132520363D01*
X149445180Y-132520363D02*
X149492800Y-132663220D01*
X149492800Y-132663220D02*
X149588038Y-132758458D01*
X149588038Y-132758458D02*
X149683276Y-132806077D01*
X149683276Y-132806077D02*
X149873752Y-132853696D01*
X149873752Y-132853696D02*
X150016609Y-132853696D01*
X150016609Y-132853696D02*
X150207085Y-132806077D01*
X150207085Y-132806077D02*
X150302323Y-132758458D01*
X150302323Y-132758458D02*
X150397561Y-132663220D01*
X150397561Y-132663220D02*
X150445180Y-132520363D01*
X150445180Y-132520363D02*
X150445180Y-132425125D01*
X150445180Y-132425125D02*
X150397561Y-132282268D01*
X150397561Y-132282268D02*
X150349942Y-132234649D01*
X145204819Y-48908207D02*
X144728628Y-48574874D01*
X145204819Y-48336779D02*
X144204819Y-48336779D01*
X144204819Y-48336779D02*
X144204819Y-48717731D01*
X144204819Y-48717731D02*
X144252438Y-48812969D01*
X144252438Y-48812969D02*
X144300057Y-48860588D01*
X144300057Y-48860588D02*
X144395295Y-48908207D01*
X144395295Y-48908207D02*
X144538152Y-48908207D01*
X144538152Y-48908207D02*
X144633390Y-48860588D01*
X144633390Y-48860588D02*
X144681009Y-48812969D01*
X144681009Y-48812969D02*
X144728628Y-48717731D01*
X144728628Y-48717731D02*
X144728628Y-48336779D01*
X145157200Y-49289160D02*
X145204819Y-49432017D01*
X145204819Y-49432017D02*
X145204819Y-49670112D01*
X145204819Y-49670112D02*
X145157200Y-49765350D01*
X145157200Y-49765350D02*
X145109580Y-49812969D01*
X145109580Y-49812969D02*
X145014342Y-49860588D01*
X145014342Y-49860588D02*
X144919104Y-49860588D01*
X144919104Y-49860588D02*
X144823866Y-49812969D01*
X144823866Y-49812969D02*
X144776247Y-49765350D01*
X144776247Y-49765350D02*
X144728628Y-49670112D01*
X144728628Y-49670112D02*
X144681009Y-49479636D01*
X144681009Y-49479636D02*
X144633390Y-49384398D01*
X144633390Y-49384398D02*
X144585771Y-49336779D01*
X144585771Y-49336779D02*
X144490533Y-49289160D01*
X144490533Y-49289160D02*
X144395295Y-49289160D01*
X144395295Y-49289160D02*
X144300057Y-49336779D01*
X144300057Y-49336779D02*
X144252438Y-49384398D01*
X144252438Y-49384398D02*
X144204819Y-49479636D01*
X144204819Y-49479636D02*
X144204819Y-49717731D01*
X144204819Y-49717731D02*
X144252438Y-49860588D01*
X143927200Y-48198684D02*
X143927200Y-49951065D01*
X149831009Y-48670112D02*
X149831009Y-48336779D01*
X150354819Y-48336779D02*
X149354819Y-48336779D01*
X149354819Y-48336779D02*
X149354819Y-48812969D01*
X150259580Y-49765350D02*
X150307200Y-49717731D01*
X150307200Y-49717731D02*
X150354819Y-49574874D01*
X150354819Y-49574874D02*
X150354819Y-49479636D01*
X150354819Y-49479636D02*
X150307200Y-49336779D01*
X150307200Y-49336779D02*
X150211961Y-49241541D01*
X150211961Y-49241541D02*
X150116723Y-49193922D01*
X150116723Y-49193922D02*
X149926247Y-49146303D01*
X149926247Y-49146303D02*
X149783390Y-49146303D01*
X149783390Y-49146303D02*
X149592914Y-49193922D01*
X149592914Y-49193922D02*
X149497676Y-49241541D01*
X149497676Y-49241541D02*
X149402438Y-49336779D01*
X149402438Y-49336779D02*
X149354819Y-49479636D01*
X149354819Y-49479636D02*
X149354819Y-49574874D01*
X149354819Y-49574874D02*
X149402438Y-49717731D01*
X149402438Y-49717731D02*
X149450057Y-49765350D01*
X122545180Y-133758458D02*
X121545180Y-133520363D01*
X121545180Y-133520363D02*
X122259466Y-133329887D01*
X122259466Y-133329887D02*
X121545180Y-133139411D01*
X121545180Y-133139411D02*
X122545180Y-132901316D01*
X121545180Y-132520363D02*
X122545180Y-132520363D01*
X122545180Y-132520363D02*
X122545180Y-132139411D01*
X122545180Y-132139411D02*
X122497561Y-132044173D01*
X122497561Y-132044173D02*
X122449942Y-131996554D01*
X122449942Y-131996554D02*
X122354704Y-131948935D01*
X122354704Y-131948935D02*
X122211847Y-131948935D01*
X122211847Y-131948935D02*
X122116609Y-131996554D01*
X122116609Y-131996554D02*
X122068990Y-132044173D01*
X122068990Y-132044173D02*
X122021371Y-132139411D01*
X122021371Y-132139411D02*
X122021371Y-132520363D01*
X122822800Y-133801316D02*
X122822800Y-131858459D01*
X155407200Y-48289160D02*
X155454819Y-48432017D01*
X155454819Y-48432017D02*
X155454819Y-48670112D01*
X155454819Y-48670112D02*
X155407200Y-48765350D01*
X155407200Y-48765350D02*
X155359580Y-48812969D01*
X155359580Y-48812969D02*
X155264342Y-48860588D01*
X155264342Y-48860588D02*
X155169104Y-48860588D01*
X155169104Y-48860588D02*
X155073866Y-48812969D01*
X155073866Y-48812969D02*
X155026247Y-48765350D01*
X155026247Y-48765350D02*
X154978628Y-48670112D01*
X154978628Y-48670112D02*
X154931009Y-48479636D01*
X154931009Y-48479636D02*
X154883390Y-48384398D01*
X154883390Y-48384398D02*
X154835771Y-48336779D01*
X154835771Y-48336779D02*
X154740533Y-48289160D01*
X154740533Y-48289160D02*
X154645295Y-48289160D01*
X154645295Y-48289160D02*
X154550057Y-48336779D01*
X154550057Y-48336779D02*
X154502438Y-48384398D01*
X154502438Y-48384398D02*
X154454819Y-48479636D01*
X154454819Y-48479636D02*
X154454819Y-48717731D01*
X154454819Y-48717731D02*
X154502438Y-48860588D01*
X154454819Y-49289160D02*
X155264342Y-49289160D01*
X155264342Y-49289160D02*
X155359580Y-49336779D01*
X155359580Y-49336779D02*
X155407200Y-49384398D01*
X155407200Y-49384398D02*
X155454819Y-49479636D01*
X155454819Y-49479636D02*
X155454819Y-49670112D01*
X155454819Y-49670112D02*
X155407200Y-49765350D01*
X155407200Y-49765350D02*
X155359580Y-49812969D01*
X155359580Y-49812969D02*
X155264342Y-49860588D01*
X155264342Y-49860588D02*
X154454819Y-49860588D01*
X134145180Y-133091792D02*
X134621371Y-133425125D01*
X134145180Y-133663220D02*
X135145180Y-133663220D01*
X135145180Y-133663220D02*
X135145180Y-133282268D01*
X135145180Y-133282268D02*
X135097561Y-133187030D01*
X135097561Y-133187030D02*
X135049942Y-133139411D01*
X135049942Y-133139411D02*
X134954704Y-133091792D01*
X134954704Y-133091792D02*
X134811847Y-133091792D01*
X134811847Y-133091792D02*
X134716609Y-133139411D01*
X134716609Y-133139411D02*
X134668990Y-133187030D01*
X134668990Y-133187030D02*
X134621371Y-133282268D01*
X134621371Y-133282268D02*
X134621371Y-133663220D01*
X134668990Y-132329887D02*
X134621371Y-132187030D01*
X134621371Y-132187030D02*
X134573752Y-132139411D01*
X134573752Y-132139411D02*
X134478514Y-132091792D01*
X134478514Y-132091792D02*
X134335657Y-132091792D01*
X134335657Y-132091792D02*
X134240419Y-132139411D01*
X134240419Y-132139411D02*
X134192800Y-132187030D01*
X134192800Y-132187030D02*
X134145180Y-132282268D01*
X134145180Y-132282268D02*
X134145180Y-132663220D01*
X134145180Y-132663220D02*
X135145180Y-132663220D01*
X135145180Y-132663220D02*
X135145180Y-132329887D01*
X135145180Y-132329887D02*
X135097561Y-132234649D01*
X135097561Y-132234649D02*
X135049942Y-132187030D01*
X135049942Y-132187030D02*
X134954704Y-132139411D01*
X134954704Y-132139411D02*
X134859466Y-132139411D01*
X134859466Y-132139411D02*
X134764228Y-132187030D01*
X134764228Y-132187030D02*
X134716609Y-132234649D01*
X134716609Y-132234649D02*
X134668990Y-132329887D01*
X134668990Y-132329887D02*
X134668990Y-132663220D01*
X135422800Y-133801316D02*
X135422800Y-132001316D01*
X152331009Y-48670112D02*
X152331009Y-48336779D01*
X152854819Y-48336779D02*
X151854819Y-48336779D01*
X151854819Y-48336779D02*
X151854819Y-48812969D01*
X151854819Y-49098684D02*
X151854819Y-49765350D01*
X151854819Y-49765350D02*
X152854819Y-49098684D01*
X152854819Y-49098684D02*
X152854819Y-49765350D01*
X183497561Y-133139411D02*
X183545180Y-133234649D01*
X183545180Y-133234649D02*
X183545180Y-133377506D01*
X183545180Y-133377506D02*
X183497561Y-133520363D01*
X183497561Y-133520363D02*
X183402323Y-133615601D01*
X183402323Y-133615601D02*
X183307085Y-133663220D01*
X183307085Y-133663220D02*
X183116609Y-133710839D01*
X183116609Y-133710839D02*
X182973752Y-133710839D01*
X182973752Y-133710839D02*
X182783276Y-133663220D01*
X182783276Y-133663220D02*
X182688038Y-133615601D01*
X182688038Y-133615601D02*
X182592800Y-133520363D01*
X182592800Y-133520363D02*
X182545180Y-133377506D01*
X182545180Y-133377506D02*
X182545180Y-133282268D01*
X182545180Y-133282268D02*
X182592800Y-133139411D01*
X182592800Y-133139411D02*
X182640419Y-133091792D01*
X182640419Y-133091792D02*
X182973752Y-133091792D01*
X182973752Y-133091792D02*
X182973752Y-133282268D01*
X182545180Y-132663220D02*
X183545180Y-132663220D01*
X183545180Y-132663220D02*
X182545180Y-132091792D01*
X182545180Y-132091792D02*
X183545180Y-132091792D01*
X182545180Y-131615601D02*
X183545180Y-131615601D01*
X183545180Y-131615601D02*
X183545180Y-131377506D01*
X183545180Y-131377506D02*
X183497561Y-131234649D01*
X183497561Y-131234649D02*
X183402323Y-131139411D01*
X183402323Y-131139411D02*
X183307085Y-131091792D01*
X183307085Y-131091792D02*
X183116609Y-131044173D01*
X183116609Y-131044173D02*
X182973752Y-131044173D01*
X182973752Y-131044173D02*
X182783276Y-131091792D01*
X182783276Y-131091792D02*
X182688038Y-131139411D01*
X182688038Y-131139411D02*
X182592800Y-131234649D01*
X182592800Y-131234649D02*
X182545180Y-131377506D01*
X182545180Y-131377506D02*
X182545180Y-131615601D01*
X159545180Y-133663220D02*
X160545180Y-133663220D01*
X160545180Y-133663220D02*
X159830895Y-133329887D01*
X159830895Y-133329887D02*
X160545180Y-132996554D01*
X160545180Y-132996554D02*
X159545180Y-132996554D01*
X159830895Y-132567982D02*
X159830895Y-132091792D01*
X159545180Y-132663220D02*
X160545180Y-132329887D01*
X160545180Y-132329887D02*
X159545180Y-131996554D01*
X174940419Y-133091792D02*
X174892800Y-133139411D01*
X174892800Y-133139411D02*
X174845180Y-133282268D01*
X174845180Y-133282268D02*
X174845180Y-133377506D01*
X174845180Y-133377506D02*
X174892800Y-133520363D01*
X174892800Y-133520363D02*
X174988038Y-133615601D01*
X174988038Y-133615601D02*
X175083276Y-133663220D01*
X175083276Y-133663220D02*
X175273752Y-133710839D01*
X175273752Y-133710839D02*
X175416609Y-133710839D01*
X175416609Y-133710839D02*
X175607085Y-133663220D01*
X175607085Y-133663220D02*
X175702323Y-133615601D01*
X175702323Y-133615601D02*
X175797561Y-133520363D01*
X175797561Y-133520363D02*
X175845180Y-133377506D01*
X175845180Y-133377506D02*
X175845180Y-133282268D01*
X175845180Y-133282268D02*
X175797561Y-133139411D01*
X175797561Y-133139411D02*
X175749942Y-133091792D01*
X174845180Y-132187030D02*
X174845180Y-132663220D01*
X174845180Y-132663220D02*
X175845180Y-132663220D01*
X174845180Y-131853696D02*
X175845180Y-131853696D01*
X174845180Y-131282268D02*
X175416609Y-131710839D01*
X175845180Y-131282268D02*
X175273752Y-131853696D01*
X182502438Y-48860588D02*
X182454819Y-48765350D01*
X182454819Y-48765350D02*
X182454819Y-48622493D01*
X182454819Y-48622493D02*
X182502438Y-48479636D01*
X182502438Y-48479636D02*
X182597676Y-48384398D01*
X182597676Y-48384398D02*
X182692914Y-48336779D01*
X182692914Y-48336779D02*
X182883390Y-48289160D01*
X182883390Y-48289160D02*
X183026247Y-48289160D01*
X183026247Y-48289160D02*
X183216723Y-48336779D01*
X183216723Y-48336779D02*
X183311961Y-48384398D01*
X183311961Y-48384398D02*
X183407200Y-48479636D01*
X183407200Y-48479636D02*
X183454819Y-48622493D01*
X183454819Y-48622493D02*
X183454819Y-48717731D01*
X183454819Y-48717731D02*
X183407200Y-48860588D01*
X183407200Y-48860588D02*
X183359580Y-48908207D01*
X183359580Y-48908207D02*
X183026247Y-48908207D01*
X183026247Y-48908207D02*
X183026247Y-48717731D01*
X183454819Y-49336779D02*
X182454819Y-49336779D01*
X182454819Y-49336779D02*
X183454819Y-49908207D01*
X183454819Y-49908207D02*
X182454819Y-49908207D01*
X183454819Y-50384398D02*
X182454819Y-50384398D01*
X182454819Y-50384398D02*
X182454819Y-50622493D01*
X182454819Y-50622493D02*
X182502438Y-50765350D01*
X182502438Y-50765350D02*
X182597676Y-50860588D01*
X182597676Y-50860588D02*
X182692914Y-50908207D01*
X182692914Y-50908207D02*
X182883390Y-50955826D01*
X182883390Y-50955826D02*
X183026247Y-50955826D01*
X183026247Y-50955826D02*
X183216723Y-50908207D01*
X183216723Y-50908207D02*
X183311961Y-50860588D01*
X183311961Y-50860588D02*
X183407200Y-50765350D01*
X183407200Y-50765350D02*
X183454819Y-50622493D01*
X183454819Y-50622493D02*
X183454819Y-50384398D01*
X102154819Y-48336779D02*
X101154819Y-48336779D01*
X101154819Y-48336779D02*
X101154819Y-48574874D01*
X101154819Y-48574874D02*
X101202438Y-48717731D01*
X101202438Y-48717731D02*
X101297676Y-48812969D01*
X101297676Y-48812969D02*
X101392914Y-48860588D01*
X101392914Y-48860588D02*
X101583390Y-48908207D01*
X101583390Y-48908207D02*
X101726247Y-48908207D01*
X101726247Y-48908207D02*
X101916723Y-48860588D01*
X101916723Y-48860588D02*
X102011961Y-48812969D01*
X102011961Y-48812969D02*
X102107200Y-48717731D01*
X102107200Y-48717731D02*
X102154819Y-48574874D01*
X102154819Y-48574874D02*
X102154819Y-48336779D01*
X101488152Y-49765350D02*
X102154819Y-49765350D01*
X101107200Y-49527255D02*
X101821485Y-49289160D01*
X101821485Y-49289160D02*
X101821485Y-49908207D01*
X118854819Y-48241541D02*
X119854819Y-48479636D01*
X119854819Y-48479636D02*
X119140533Y-48670112D01*
X119140533Y-48670112D02*
X119854819Y-48860588D01*
X119854819Y-48860588D02*
X118854819Y-49098684D01*
X118854819Y-49670112D02*
X118854819Y-49860588D01*
X118854819Y-49860588D02*
X118902438Y-49955826D01*
X118902438Y-49955826D02*
X118997676Y-50051064D01*
X118997676Y-50051064D02*
X119188152Y-50098683D01*
X119188152Y-50098683D02*
X119521485Y-50098683D01*
X119521485Y-50098683D02*
X119711961Y-50051064D01*
X119711961Y-50051064D02*
X119807200Y-49955826D01*
X119807200Y-49955826D02*
X119854819Y-49860588D01*
X119854819Y-49860588D02*
X119854819Y-49670112D01*
X119854819Y-49670112D02*
X119807200Y-49574874D01*
X119807200Y-49574874D02*
X119711961Y-49479636D01*
X119711961Y-49479636D02*
X119521485Y-49432017D01*
X119521485Y-49432017D02*
X119188152Y-49432017D01*
X119188152Y-49432017D02*
X118997676Y-49479636D01*
X118997676Y-49479636D02*
X118902438Y-49574874D01*
X118902438Y-49574874D02*
X118854819Y-49670112D01*
X118577200Y-48198684D02*
X118577200Y-50189160D01*
X113754819Y-48241541D02*
X114754819Y-48479636D01*
X114754819Y-48479636D02*
X114040533Y-48670112D01*
X114040533Y-48670112D02*
X114754819Y-48860588D01*
X114754819Y-48860588D02*
X113754819Y-49098684D01*
X114469104Y-49432017D02*
X114469104Y-49908207D01*
X114754819Y-49336779D02*
X113754819Y-49670112D01*
X113754819Y-49670112D02*
X114754819Y-50003445D01*
X113477200Y-48198684D02*
X113477200Y-49998684D01*
X85902438Y-48860588D02*
X85854819Y-48765350D01*
X85854819Y-48765350D02*
X85854819Y-48622493D01*
X85854819Y-48622493D02*
X85902438Y-48479636D01*
X85902438Y-48479636D02*
X85997676Y-48384398D01*
X85997676Y-48384398D02*
X86092914Y-48336779D01*
X86092914Y-48336779D02*
X86283390Y-48289160D01*
X86283390Y-48289160D02*
X86426247Y-48289160D01*
X86426247Y-48289160D02*
X86616723Y-48336779D01*
X86616723Y-48336779D02*
X86711961Y-48384398D01*
X86711961Y-48384398D02*
X86807200Y-48479636D01*
X86807200Y-48479636D02*
X86854819Y-48622493D01*
X86854819Y-48622493D02*
X86854819Y-48717731D01*
X86854819Y-48717731D02*
X86807200Y-48860588D01*
X86807200Y-48860588D02*
X86759580Y-48908207D01*
X86759580Y-48908207D02*
X86426247Y-48908207D01*
X86426247Y-48908207D02*
X86426247Y-48717731D01*
X86854819Y-49336779D02*
X85854819Y-49336779D01*
X85854819Y-49336779D02*
X86854819Y-49908207D01*
X86854819Y-49908207D02*
X85854819Y-49908207D01*
X86854819Y-50384398D02*
X85854819Y-50384398D01*
X85854819Y-50384398D02*
X85854819Y-50622493D01*
X85854819Y-50622493D02*
X85902438Y-50765350D01*
X85902438Y-50765350D02*
X85997676Y-50860588D01*
X85997676Y-50860588D02*
X86092914Y-50908207D01*
X86092914Y-50908207D02*
X86283390Y-50955826D01*
X86283390Y-50955826D02*
X86426247Y-50955826D01*
X86426247Y-50955826D02*
X86616723Y-50908207D01*
X86616723Y-50908207D02*
X86711961Y-50860588D01*
X86711961Y-50860588D02*
X86807200Y-50765350D01*
X86807200Y-50765350D02*
X86854819Y-50622493D01*
X86854819Y-50622493D02*
X86854819Y-50384398D01*
X180954819Y-48812969D02*
X180954819Y-48336779D01*
X180954819Y-48336779D02*
X179954819Y-48336779D01*
X180954819Y-49146303D02*
X179954819Y-49146303D01*
X179954819Y-49146303D02*
X179954819Y-49384398D01*
X179954819Y-49384398D02*
X180002438Y-49527255D01*
X180002438Y-49527255D02*
X180097676Y-49622493D01*
X180097676Y-49622493D02*
X180192914Y-49670112D01*
X180192914Y-49670112D02*
X180383390Y-49717731D01*
X180383390Y-49717731D02*
X180526247Y-49717731D01*
X180526247Y-49717731D02*
X180716723Y-49670112D01*
X180716723Y-49670112D02*
X180811961Y-49622493D01*
X180811961Y-49622493D02*
X180907200Y-49527255D01*
X180907200Y-49527255D02*
X180954819Y-49384398D01*
X180954819Y-49384398D02*
X180954819Y-49146303D01*
X180573866Y-50146303D02*
X180573866Y-50908208D01*
X180669104Y-51336779D02*
X180669104Y-51812969D01*
X180954819Y-51241541D02*
X179954819Y-51574874D01*
X179954819Y-51574874D02*
X180954819Y-51908207D01*
X116354819Y-48241541D02*
X117354819Y-48479636D01*
X117354819Y-48479636D02*
X116640533Y-48670112D01*
X116640533Y-48670112D02*
X117354819Y-48860588D01*
X117354819Y-48860588D02*
X116354819Y-49098684D01*
X116831009Y-49812969D02*
X116878628Y-49955826D01*
X116878628Y-49955826D02*
X116926247Y-50003445D01*
X116926247Y-50003445D02*
X117021485Y-50051064D01*
X117021485Y-50051064D02*
X117164342Y-50051064D01*
X117164342Y-50051064D02*
X117259580Y-50003445D01*
X117259580Y-50003445D02*
X117307200Y-49955826D01*
X117307200Y-49955826D02*
X117354819Y-49860588D01*
X117354819Y-49860588D02*
X117354819Y-49479636D01*
X117354819Y-49479636D02*
X116354819Y-49479636D01*
X116354819Y-49479636D02*
X116354819Y-49812969D01*
X116354819Y-49812969D02*
X116402438Y-49908207D01*
X116402438Y-49908207D02*
X116450057Y-49955826D01*
X116450057Y-49955826D02*
X116545295Y-50003445D01*
X116545295Y-50003445D02*
X116640533Y-50003445D01*
X116640533Y-50003445D02*
X116735771Y-49955826D01*
X116735771Y-49955826D02*
X116783390Y-49908207D01*
X116783390Y-49908207D02*
X116831009Y-49812969D01*
X116831009Y-49812969D02*
X116831009Y-49479636D01*
X116077200Y-48198684D02*
X116077200Y-50141541D01*
X177545180Y-133187030D02*
X177545180Y-133663220D01*
X177545180Y-133663220D02*
X178545180Y-133663220D01*
X177545180Y-132853696D02*
X178545180Y-132853696D01*
X178545180Y-132853696D02*
X178545180Y-132615601D01*
X178545180Y-132615601D02*
X178497561Y-132472744D01*
X178497561Y-132472744D02*
X178402323Y-132377506D01*
X178402323Y-132377506D02*
X178307085Y-132329887D01*
X178307085Y-132329887D02*
X178116609Y-132282268D01*
X178116609Y-132282268D02*
X177973752Y-132282268D01*
X177973752Y-132282268D02*
X177783276Y-132329887D01*
X177783276Y-132329887D02*
X177688038Y-132377506D01*
X177688038Y-132377506D02*
X177592800Y-132472744D01*
X177592800Y-132472744D02*
X177545180Y-132615601D01*
X177545180Y-132615601D02*
X177545180Y-132853696D01*
X177926133Y-131853696D02*
X177926133Y-131091792D01*
X177640419Y-130044173D02*
X177592800Y-130091792D01*
X177592800Y-130091792D02*
X177545180Y-130234649D01*
X177545180Y-130234649D02*
X177545180Y-130329887D01*
X177545180Y-130329887D02*
X177592800Y-130472744D01*
X177592800Y-130472744D02*
X177688038Y-130567982D01*
X177688038Y-130567982D02*
X177783276Y-130615601D01*
X177783276Y-130615601D02*
X177973752Y-130663220D01*
X177973752Y-130663220D02*
X178116609Y-130663220D01*
X178116609Y-130663220D02*
X178307085Y-130615601D01*
X178307085Y-130615601D02*
X178402323Y-130567982D01*
X178402323Y-130567982D02*
X178497561Y-130472744D01*
X178497561Y-130472744D02*
X178545180Y-130329887D01*
X178545180Y-130329887D02*
X178545180Y-130234649D01*
X178545180Y-130234649D02*
X178497561Y-130091792D01*
X178497561Y-130091792D02*
X178449942Y-130044173D01*
X157907200Y-48289160D02*
X157954819Y-48432017D01*
X157954819Y-48432017D02*
X157954819Y-48670112D01*
X157954819Y-48670112D02*
X157907200Y-48765350D01*
X157907200Y-48765350D02*
X157859580Y-48812969D01*
X157859580Y-48812969D02*
X157764342Y-48860588D01*
X157764342Y-48860588D02*
X157669104Y-48860588D01*
X157669104Y-48860588D02*
X157573866Y-48812969D01*
X157573866Y-48812969D02*
X157526247Y-48765350D01*
X157526247Y-48765350D02*
X157478628Y-48670112D01*
X157478628Y-48670112D02*
X157431009Y-48479636D01*
X157431009Y-48479636D02*
X157383390Y-48384398D01*
X157383390Y-48384398D02*
X157335771Y-48336779D01*
X157335771Y-48336779D02*
X157240533Y-48289160D01*
X157240533Y-48289160D02*
X157145295Y-48289160D01*
X157145295Y-48289160D02*
X157050057Y-48336779D01*
X157050057Y-48336779D02*
X157002438Y-48384398D01*
X157002438Y-48384398D02*
X156954819Y-48479636D01*
X156954819Y-48479636D02*
X156954819Y-48717731D01*
X156954819Y-48717731D02*
X157002438Y-48860588D01*
X157954819Y-49289160D02*
X156954819Y-49289160D01*
X156954819Y-49289160D02*
X156954819Y-49527255D01*
X156954819Y-49527255D02*
X157002438Y-49670112D01*
X157002438Y-49670112D02*
X157097676Y-49765350D01*
X157097676Y-49765350D02*
X157192914Y-49812969D01*
X157192914Y-49812969D02*
X157383390Y-49860588D01*
X157383390Y-49860588D02*
X157526247Y-49860588D01*
X157526247Y-49860588D02*
X157716723Y-49812969D01*
X157716723Y-49812969D02*
X157811961Y-49765350D01*
X157811961Y-49765350D02*
X157907200Y-49670112D01*
X157907200Y-49670112D02*
X157954819Y-49527255D01*
X157954819Y-49527255D02*
X157954819Y-49289160D01*
X93545180Y-133663220D02*
X94545180Y-133663220D01*
X94545180Y-133663220D02*
X94545180Y-133425125D01*
X94545180Y-133425125D02*
X94497561Y-133282268D01*
X94497561Y-133282268D02*
X94402323Y-133187030D01*
X94402323Y-133187030D02*
X94307085Y-133139411D01*
X94307085Y-133139411D02*
X94116609Y-133091792D01*
X94116609Y-133091792D02*
X93973752Y-133091792D01*
X93973752Y-133091792D02*
X93783276Y-133139411D01*
X93783276Y-133139411D02*
X93688038Y-133187030D01*
X93688038Y-133187030D02*
X93592800Y-133282268D01*
X93592800Y-133282268D02*
X93545180Y-133425125D01*
X93545180Y-133425125D02*
X93545180Y-133663220D01*
X94545180Y-132758458D02*
X94545180Y-132091792D01*
X94545180Y-132091792D02*
X93545180Y-132520363D01*
X140204819Y-48908207D02*
X139728628Y-48574874D01*
X140204819Y-48336779D02*
X139204819Y-48336779D01*
X139204819Y-48336779D02*
X139204819Y-48717731D01*
X139204819Y-48717731D02*
X139252438Y-48812969D01*
X139252438Y-48812969D02*
X139300057Y-48860588D01*
X139300057Y-48860588D02*
X139395295Y-48908207D01*
X139395295Y-48908207D02*
X139538152Y-48908207D01*
X139538152Y-48908207D02*
X139633390Y-48860588D01*
X139633390Y-48860588D02*
X139681009Y-48812969D01*
X139681009Y-48812969D02*
X139728628Y-48717731D01*
X139728628Y-48717731D02*
X139728628Y-48336779D01*
X140204819Y-49336779D02*
X139204819Y-49336779D01*
X139204819Y-49336779D02*
X139204819Y-49717731D01*
X139204819Y-49717731D02*
X139252438Y-49812969D01*
X139252438Y-49812969D02*
X139300057Y-49860588D01*
X139300057Y-49860588D02*
X139395295Y-49908207D01*
X139395295Y-49908207D02*
X139538152Y-49908207D01*
X139538152Y-49908207D02*
X139633390Y-49860588D01*
X139633390Y-49860588D02*
X139681009Y-49812969D01*
X139681009Y-49812969D02*
X139728628Y-49717731D01*
X139728628Y-49717731D02*
X139728628Y-49336779D01*
X138927200Y-48198684D02*
X138927200Y-49998684D01*
X126454819Y-48241541D02*
X127454819Y-48479636D01*
X127454819Y-48479636D02*
X126740533Y-48670112D01*
X126740533Y-48670112D02*
X127454819Y-48860588D01*
X127454819Y-48860588D02*
X126454819Y-49098684D01*
X127454819Y-49479636D02*
X126454819Y-49479636D01*
X126454819Y-49479636D02*
X127169104Y-49812969D01*
X127169104Y-49812969D02*
X126454819Y-50146302D01*
X126454819Y-50146302D02*
X127454819Y-50146302D01*
X126177200Y-48198684D02*
X126177200Y-50284398D01*
X167631009Y-48670112D02*
X167631009Y-48336779D01*
X168154819Y-48336779D02*
X167154819Y-48336779D01*
X167154819Y-48336779D02*
X167154819Y-48812969D01*
X168154819Y-49670112D02*
X168154819Y-49193922D01*
X168154819Y-49193922D02*
X167154819Y-49193922D01*
X136545180Y-133091792D02*
X137021371Y-133425125D01*
X136545180Y-133663220D02*
X137545180Y-133663220D01*
X137545180Y-133663220D02*
X137545180Y-133282268D01*
X137545180Y-133282268D02*
X137497561Y-133187030D01*
X137497561Y-133187030D02*
X137449942Y-133139411D01*
X137449942Y-133139411D02*
X137354704Y-133091792D01*
X137354704Y-133091792D02*
X137211847Y-133091792D01*
X137211847Y-133091792D02*
X137116609Y-133139411D01*
X137116609Y-133139411D02*
X137068990Y-133187030D01*
X137068990Y-133187030D02*
X137021371Y-133282268D01*
X137021371Y-133282268D02*
X137021371Y-133663220D01*
X136545180Y-132187030D02*
X136545180Y-132663220D01*
X136545180Y-132663220D02*
X137545180Y-132663220D01*
X137822800Y-133801316D02*
X137822800Y-132191792D01*
X144295180Y-133091792D02*
X144771371Y-133425125D01*
X144295180Y-133663220D02*
X145295180Y-133663220D01*
X145295180Y-133663220D02*
X145295180Y-133282268D01*
X145295180Y-133282268D02*
X145247561Y-133187030D01*
X145247561Y-133187030D02*
X145199942Y-133139411D01*
X145199942Y-133139411D02*
X145104704Y-133091792D01*
X145104704Y-133091792D02*
X144961847Y-133091792D01*
X144961847Y-133091792D02*
X144866609Y-133139411D01*
X144866609Y-133139411D02*
X144818990Y-133187030D01*
X144818990Y-133187030D02*
X144771371Y-133282268D01*
X144771371Y-133282268D02*
X144771371Y-133663220D01*
X144342800Y-132710839D02*
X144295180Y-132567982D01*
X144295180Y-132567982D02*
X144295180Y-132329887D01*
X144295180Y-132329887D02*
X144342800Y-132234649D01*
X144342800Y-132234649D02*
X144390419Y-132187030D01*
X144390419Y-132187030D02*
X144485657Y-132139411D01*
X144485657Y-132139411D02*
X144580895Y-132139411D01*
X144580895Y-132139411D02*
X144676133Y-132187030D01*
X144676133Y-132187030D02*
X144723752Y-132234649D01*
X144723752Y-132234649D02*
X144771371Y-132329887D01*
X144771371Y-132329887D02*
X144818990Y-132520363D01*
X144818990Y-132520363D02*
X144866609Y-132615601D01*
X144866609Y-132615601D02*
X144914228Y-132663220D01*
X144914228Y-132663220D02*
X145009466Y-132710839D01*
X145009466Y-132710839D02*
X145104704Y-132710839D01*
X145104704Y-132710839D02*
X145199942Y-132663220D01*
X145199942Y-132663220D02*
X145247561Y-132615601D01*
X145247561Y-132615601D02*
X145295180Y-132520363D01*
X145295180Y-132520363D02*
X145295180Y-132282268D01*
X145295180Y-132282268D02*
X145247561Y-132139411D01*
X145572800Y-133801316D02*
X145572800Y-132048935D01*
X98645180Y-133663220D02*
X99645180Y-133663220D01*
X99645180Y-133663220D02*
X99645180Y-133425125D01*
X99645180Y-133425125D02*
X99597561Y-133282268D01*
X99597561Y-133282268D02*
X99502323Y-133187030D01*
X99502323Y-133187030D02*
X99407085Y-133139411D01*
X99407085Y-133139411D02*
X99216609Y-133091792D01*
X99216609Y-133091792D02*
X99073752Y-133091792D01*
X99073752Y-133091792D02*
X98883276Y-133139411D01*
X98883276Y-133139411D02*
X98788038Y-133187030D01*
X98788038Y-133187030D02*
X98692800Y-133282268D01*
X98692800Y-133282268D02*
X98645180Y-133425125D01*
X98645180Y-133425125D02*
X98645180Y-133663220D01*
X99645180Y-132187030D02*
X99645180Y-132663220D01*
X99645180Y-132663220D02*
X99168990Y-132710839D01*
X99168990Y-132710839D02*
X99216609Y-132663220D01*
X99216609Y-132663220D02*
X99264228Y-132567982D01*
X99264228Y-132567982D02*
X99264228Y-132329887D01*
X99264228Y-132329887D02*
X99216609Y-132234649D01*
X99216609Y-132234649D02*
X99168990Y-132187030D01*
X99168990Y-132187030D02*
X99073752Y-132139411D01*
X99073752Y-132139411D02*
X98835657Y-132139411D01*
X98835657Y-132139411D02*
X98740419Y-132187030D01*
X98740419Y-132187030D02*
X98692800Y-132234649D01*
X98692800Y-132234649D02*
X98645180Y-132329887D01*
X98645180Y-132329887D02*
X98645180Y-132567982D01*
X98645180Y-132567982D02*
X98692800Y-132663220D01*
X98692800Y-132663220D02*
X98740419Y-132710839D01*
X180045180Y-133187030D02*
X180045180Y-133663220D01*
X180045180Y-133663220D02*
X181045180Y-133663220D01*
X180045180Y-132853696D02*
X181045180Y-132853696D01*
X181045180Y-132853696D02*
X181045180Y-132615601D01*
X181045180Y-132615601D02*
X180997561Y-132472744D01*
X180997561Y-132472744D02*
X180902323Y-132377506D01*
X180902323Y-132377506D02*
X180807085Y-132329887D01*
X180807085Y-132329887D02*
X180616609Y-132282268D01*
X180616609Y-132282268D02*
X180473752Y-132282268D01*
X180473752Y-132282268D02*
X180283276Y-132329887D01*
X180283276Y-132329887D02*
X180188038Y-132377506D01*
X180188038Y-132377506D02*
X180092800Y-132472744D01*
X180092800Y-132472744D02*
X180045180Y-132615601D01*
X180045180Y-132615601D02*
X180045180Y-132853696D01*
X180426133Y-131853696D02*
X180426133Y-131091792D01*
X180330895Y-130663220D02*
X180330895Y-130187030D01*
X180045180Y-130758458D02*
X181045180Y-130425125D01*
X181045180Y-130425125D02*
X180045180Y-130091792D01*
X131745180Y-133091792D02*
X132221371Y-133425125D01*
X131745180Y-133663220D02*
X132745180Y-133663220D01*
X132745180Y-133663220D02*
X132745180Y-133282268D01*
X132745180Y-133282268D02*
X132697561Y-133187030D01*
X132697561Y-133187030D02*
X132649942Y-133139411D01*
X132649942Y-133139411D02*
X132554704Y-133091792D01*
X132554704Y-133091792D02*
X132411847Y-133091792D01*
X132411847Y-133091792D02*
X132316609Y-133139411D01*
X132316609Y-133139411D02*
X132268990Y-133187030D01*
X132268990Y-133187030D02*
X132221371Y-133282268D01*
X132221371Y-133282268D02*
X132221371Y-133663220D01*
X132030895Y-132710839D02*
X132030895Y-132234649D01*
X131745180Y-132806077D02*
X132745180Y-132472744D01*
X132745180Y-132472744D02*
X131745180Y-132139411D01*
X133022800Y-133801316D02*
X133022800Y-132144173D01*
X127545180Y-133758458D02*
X126545180Y-133520363D01*
X126545180Y-133520363D02*
X127259466Y-133329887D01*
X127259466Y-133329887D02*
X126545180Y-133139411D01*
X126545180Y-133139411D02*
X127545180Y-132901316D01*
X126545180Y-132520363D02*
X127545180Y-132520363D01*
X127545180Y-132520363D02*
X126830895Y-132187030D01*
X126830895Y-132187030D02*
X127545180Y-131853697D01*
X127545180Y-131853697D02*
X126545180Y-131853697D01*
X127822800Y-133801316D02*
X127822800Y-131715602D01*
X125045180Y-133758458D02*
X124045180Y-133520363D01*
X124045180Y-133520363D02*
X124759466Y-133329887D01*
X124759466Y-133329887D02*
X124045180Y-133139411D01*
X124045180Y-133139411D02*
X125045180Y-132901316D01*
X124045180Y-131948935D02*
X124521371Y-132282268D01*
X124045180Y-132520363D02*
X125045180Y-132520363D01*
X125045180Y-132520363D02*
X125045180Y-132139411D01*
X125045180Y-132139411D02*
X124997561Y-132044173D01*
X124997561Y-132044173D02*
X124949942Y-131996554D01*
X124949942Y-131996554D02*
X124854704Y-131948935D01*
X124854704Y-131948935D02*
X124711847Y-131948935D01*
X124711847Y-131948935D02*
X124616609Y-131996554D01*
X124616609Y-131996554D02*
X124568990Y-132044173D01*
X124568990Y-132044173D02*
X124521371Y-132139411D01*
X124521371Y-132139411D02*
X124521371Y-132520363D01*
X125322800Y-133801316D02*
X125322800Y-131858459D01*
X135204819Y-48908207D02*
X134728628Y-48574874D01*
X135204819Y-48336779D02*
X134204819Y-48336779D01*
X134204819Y-48336779D02*
X134204819Y-48717731D01*
X134204819Y-48717731D02*
X134252438Y-48812969D01*
X134252438Y-48812969D02*
X134300057Y-48860588D01*
X134300057Y-48860588D02*
X134395295Y-48908207D01*
X134395295Y-48908207D02*
X134538152Y-48908207D01*
X134538152Y-48908207D02*
X134633390Y-48860588D01*
X134633390Y-48860588D02*
X134681009Y-48812969D01*
X134681009Y-48812969D02*
X134728628Y-48717731D01*
X134728628Y-48717731D02*
X134728628Y-48336779D01*
X134681009Y-49670112D02*
X134728628Y-49812969D01*
X134728628Y-49812969D02*
X134776247Y-49860588D01*
X134776247Y-49860588D02*
X134871485Y-49908207D01*
X134871485Y-49908207D02*
X135014342Y-49908207D01*
X135014342Y-49908207D02*
X135109580Y-49860588D01*
X135109580Y-49860588D02*
X135157200Y-49812969D01*
X135157200Y-49812969D02*
X135204819Y-49717731D01*
X135204819Y-49717731D02*
X135204819Y-49336779D01*
X135204819Y-49336779D02*
X134204819Y-49336779D01*
X134204819Y-49336779D02*
X134204819Y-49670112D01*
X134204819Y-49670112D02*
X134252438Y-49765350D01*
X134252438Y-49765350D02*
X134300057Y-49812969D01*
X134300057Y-49812969D02*
X134395295Y-49860588D01*
X134395295Y-49860588D02*
X134490533Y-49860588D01*
X134490533Y-49860588D02*
X134585771Y-49812969D01*
X134585771Y-49812969D02*
X134633390Y-49765350D01*
X134633390Y-49765350D02*
X134681009Y-49670112D01*
X134681009Y-49670112D02*
X134681009Y-49336779D01*
X133927200Y-48198684D02*
X133927200Y-49998684D01*
X175659580Y-48908207D02*
X175707200Y-48860588D01*
X175707200Y-48860588D02*
X175754819Y-48717731D01*
X175754819Y-48717731D02*
X175754819Y-48622493D01*
X175754819Y-48622493D02*
X175707200Y-48479636D01*
X175707200Y-48479636D02*
X175611961Y-48384398D01*
X175611961Y-48384398D02*
X175516723Y-48336779D01*
X175516723Y-48336779D02*
X175326247Y-48289160D01*
X175326247Y-48289160D02*
X175183390Y-48289160D01*
X175183390Y-48289160D02*
X174992914Y-48336779D01*
X174992914Y-48336779D02*
X174897676Y-48384398D01*
X174897676Y-48384398D02*
X174802438Y-48479636D01*
X174802438Y-48479636D02*
X174754819Y-48622493D01*
X174754819Y-48622493D02*
X174754819Y-48717731D01*
X174754819Y-48717731D02*
X174802438Y-48860588D01*
X174802438Y-48860588D02*
X174850057Y-48908207D01*
X175754819Y-49812969D02*
X175754819Y-49336779D01*
X175754819Y-49336779D02*
X174754819Y-49336779D01*
X175754819Y-50146303D02*
X174754819Y-50146303D01*
X175754819Y-50717731D02*
X175183390Y-50289160D01*
X174754819Y-50717731D02*
X175326247Y-50146303D01*
X147907200Y-48289160D02*
X147954819Y-48432017D01*
X147954819Y-48432017D02*
X147954819Y-48670112D01*
X147954819Y-48670112D02*
X147907200Y-48765350D01*
X147907200Y-48765350D02*
X147859580Y-48812969D01*
X147859580Y-48812969D02*
X147764342Y-48860588D01*
X147764342Y-48860588D02*
X147669104Y-48860588D01*
X147669104Y-48860588D02*
X147573866Y-48812969D01*
X147573866Y-48812969D02*
X147526247Y-48765350D01*
X147526247Y-48765350D02*
X147478628Y-48670112D01*
X147478628Y-48670112D02*
X147431009Y-48479636D01*
X147431009Y-48479636D02*
X147383390Y-48384398D01*
X147383390Y-48384398D02*
X147335771Y-48336779D01*
X147335771Y-48336779D02*
X147240533Y-48289160D01*
X147240533Y-48289160D02*
X147145295Y-48289160D01*
X147145295Y-48289160D02*
X147050057Y-48336779D01*
X147050057Y-48336779D02*
X147002438Y-48384398D01*
X147002438Y-48384398D02*
X146954819Y-48479636D01*
X146954819Y-48479636D02*
X146954819Y-48717731D01*
X146954819Y-48717731D02*
X147002438Y-48860588D01*
X146954819Y-49193922D02*
X147954819Y-49432017D01*
X147954819Y-49432017D02*
X147240533Y-49622493D01*
X147240533Y-49622493D02*
X147954819Y-49812969D01*
X147954819Y-49812969D02*
X146954819Y-50051065D01*
X121454819Y-48241541D02*
X122454819Y-48479636D01*
X122454819Y-48479636D02*
X121740533Y-48670112D01*
X121740533Y-48670112D02*
X122454819Y-48860588D01*
X122454819Y-48860588D02*
X121454819Y-49098684D01*
X122454819Y-49479636D02*
X121454819Y-49479636D01*
X121454819Y-49479636D02*
X121454819Y-49860588D01*
X121454819Y-49860588D02*
X121502438Y-49955826D01*
X121502438Y-49955826D02*
X121550057Y-50003445D01*
X121550057Y-50003445D02*
X121645295Y-50051064D01*
X121645295Y-50051064D02*
X121788152Y-50051064D01*
X121788152Y-50051064D02*
X121883390Y-50003445D01*
X121883390Y-50003445D02*
X121931009Y-49955826D01*
X121931009Y-49955826D02*
X121978628Y-49860588D01*
X121978628Y-49860588D02*
X121978628Y-49479636D01*
X121177200Y-48198684D02*
X121177200Y-50141541D01*
X109754819Y-48336779D02*
X108754819Y-48336779D01*
X108754819Y-48336779D02*
X108754819Y-48574874D01*
X108754819Y-48574874D02*
X108802438Y-48717731D01*
X108802438Y-48717731D02*
X108897676Y-48812969D01*
X108897676Y-48812969D02*
X108992914Y-48860588D01*
X108992914Y-48860588D02*
X109183390Y-48908207D01*
X109183390Y-48908207D02*
X109326247Y-48908207D01*
X109326247Y-48908207D02*
X109516723Y-48860588D01*
X109516723Y-48860588D02*
X109611961Y-48812969D01*
X109611961Y-48812969D02*
X109707200Y-48717731D01*
X109707200Y-48717731D02*
X109754819Y-48574874D01*
X109754819Y-48574874D02*
X109754819Y-48336779D01*
X109754819Y-49860588D02*
X109754819Y-49289160D01*
X109754819Y-49574874D02*
X108754819Y-49574874D01*
X108754819Y-49574874D02*
X108897676Y-49479636D01*
X108897676Y-49479636D02*
X108992914Y-49384398D01*
X108992914Y-49384398D02*
X109040533Y-49289160D01*
X114845180Y-133758458D02*
X113845180Y-133520363D01*
X113845180Y-133520363D02*
X114559466Y-133329887D01*
X114559466Y-133329887D02*
X113845180Y-133139411D01*
X113845180Y-133139411D02*
X114845180Y-132901316D01*
X114130895Y-132567982D02*
X114130895Y-132091792D01*
X113845180Y-132663220D02*
X114845180Y-132329887D01*
X114845180Y-132329887D02*
X113845180Y-131996554D01*
X115122800Y-133801316D02*
X115122800Y-132001316D01*
X107154819Y-48336779D02*
X106154819Y-48336779D01*
X106154819Y-48336779D02*
X106154819Y-48574874D01*
X106154819Y-48574874D02*
X106202438Y-48717731D01*
X106202438Y-48717731D02*
X106297676Y-48812969D01*
X106297676Y-48812969D02*
X106392914Y-48860588D01*
X106392914Y-48860588D02*
X106583390Y-48908207D01*
X106583390Y-48908207D02*
X106726247Y-48908207D01*
X106726247Y-48908207D02*
X106916723Y-48860588D01*
X106916723Y-48860588D02*
X107011961Y-48812969D01*
X107011961Y-48812969D02*
X107107200Y-48717731D01*
X107107200Y-48717731D02*
X107154819Y-48574874D01*
X107154819Y-48574874D02*
X107154819Y-48336779D01*
X106250057Y-49289160D02*
X106202438Y-49336779D01*
X106202438Y-49336779D02*
X106154819Y-49432017D01*
X106154819Y-49432017D02*
X106154819Y-49670112D01*
X106154819Y-49670112D02*
X106202438Y-49765350D01*
X106202438Y-49765350D02*
X106250057Y-49812969D01*
X106250057Y-49812969D02*
X106345295Y-49860588D01*
X106345295Y-49860588D02*
X106440533Y-49860588D01*
X106440533Y-49860588D02*
X106583390Y-49812969D01*
X106583390Y-49812969D02*
X107154819Y-49241541D01*
X107154819Y-49241541D02*
X107154819Y-49860588D01*
X103745180Y-133663220D02*
X104745180Y-133663220D01*
X104745180Y-133663220D02*
X104745180Y-133425125D01*
X104745180Y-133425125D02*
X104697561Y-133282268D01*
X104697561Y-133282268D02*
X104602323Y-133187030D01*
X104602323Y-133187030D02*
X104507085Y-133139411D01*
X104507085Y-133139411D02*
X104316609Y-133091792D01*
X104316609Y-133091792D02*
X104173752Y-133091792D01*
X104173752Y-133091792D02*
X103983276Y-133139411D01*
X103983276Y-133139411D02*
X103888038Y-133187030D01*
X103888038Y-133187030D02*
X103792800Y-133282268D01*
X103792800Y-133282268D02*
X103745180Y-133425125D01*
X103745180Y-133425125D02*
X103745180Y-133663220D01*
X104745180Y-132758458D02*
X104745180Y-132139411D01*
X104745180Y-132139411D02*
X104364228Y-132472744D01*
X104364228Y-132472744D02*
X104364228Y-132329887D01*
X104364228Y-132329887D02*
X104316609Y-132234649D01*
X104316609Y-132234649D02*
X104268990Y-132187030D01*
X104268990Y-132187030D02*
X104173752Y-132139411D01*
X104173752Y-132139411D02*
X103935657Y-132139411D01*
X103935657Y-132139411D02*
X103840419Y-132187030D01*
X103840419Y-132187030D02*
X103792800Y-132234649D01*
X103792800Y-132234649D02*
X103745180Y-132329887D01*
X103745180Y-132329887D02*
X103745180Y-132615601D01*
X103745180Y-132615601D02*
X103792800Y-132710839D01*
X103792800Y-132710839D02*
X103840419Y-132758458D01*
X123954819Y-48241541D02*
X124954819Y-48479636D01*
X124954819Y-48479636D02*
X124240533Y-48670112D01*
X124240533Y-48670112D02*
X124954819Y-48860588D01*
X124954819Y-48860588D02*
X123954819Y-49098684D01*
X124954819Y-50051064D02*
X124478628Y-49717731D01*
X124954819Y-49479636D02*
X123954819Y-49479636D01*
X123954819Y-49479636D02*
X123954819Y-49860588D01*
X123954819Y-49860588D02*
X124002438Y-49955826D01*
X124002438Y-49955826D02*
X124050057Y-50003445D01*
X124050057Y-50003445D02*
X124145295Y-50051064D01*
X124145295Y-50051064D02*
X124288152Y-50051064D01*
X124288152Y-50051064D02*
X124383390Y-50003445D01*
X124383390Y-50003445D02*
X124431009Y-49955826D01*
X124431009Y-49955826D02*
X124478628Y-49860588D01*
X124478628Y-49860588D02*
X124478628Y-49479636D01*
X123677200Y-48198684D02*
X123677200Y-50141541D01*
X154592800Y-133710839D02*
X154545180Y-133567982D01*
X154545180Y-133567982D02*
X154545180Y-133329887D01*
X154545180Y-133329887D02*
X154592800Y-133234649D01*
X154592800Y-133234649D02*
X154640419Y-133187030D01*
X154640419Y-133187030D02*
X154735657Y-133139411D01*
X154735657Y-133139411D02*
X154830895Y-133139411D01*
X154830895Y-133139411D02*
X154926133Y-133187030D01*
X154926133Y-133187030D02*
X154973752Y-133234649D01*
X154973752Y-133234649D02*
X155021371Y-133329887D01*
X155021371Y-133329887D02*
X155068990Y-133520363D01*
X155068990Y-133520363D02*
X155116609Y-133615601D01*
X155116609Y-133615601D02*
X155164228Y-133663220D01*
X155164228Y-133663220D02*
X155259466Y-133710839D01*
X155259466Y-133710839D02*
X155354704Y-133710839D01*
X155354704Y-133710839D02*
X155449942Y-133663220D01*
X155449942Y-133663220D02*
X155497561Y-133615601D01*
X155497561Y-133615601D02*
X155545180Y-133520363D01*
X155545180Y-133520363D02*
X155545180Y-133282268D01*
X155545180Y-133282268D02*
X155497561Y-133139411D01*
X155545180Y-132710839D02*
X154735657Y-132710839D01*
X154735657Y-132710839D02*
X154640419Y-132663220D01*
X154640419Y-132663220D02*
X154592800Y-132615601D01*
X154592800Y-132615601D02*
X154545180Y-132520363D01*
X154545180Y-132520363D02*
X154545180Y-132329887D01*
X154545180Y-132329887D02*
X154592800Y-132234649D01*
X154592800Y-132234649D02*
X154640419Y-132187030D01*
X154640419Y-132187030D02*
X154735657Y-132139411D01*
X154735657Y-132139411D02*
X155545180Y-132139411D01*
X147092800Y-133710839D02*
X147045180Y-133567982D01*
X147045180Y-133567982D02*
X147045180Y-133329887D01*
X147045180Y-133329887D02*
X147092800Y-133234649D01*
X147092800Y-133234649D02*
X147140419Y-133187030D01*
X147140419Y-133187030D02*
X147235657Y-133139411D01*
X147235657Y-133139411D02*
X147330895Y-133139411D01*
X147330895Y-133139411D02*
X147426133Y-133187030D01*
X147426133Y-133187030D02*
X147473752Y-133234649D01*
X147473752Y-133234649D02*
X147521371Y-133329887D01*
X147521371Y-133329887D02*
X147568990Y-133520363D01*
X147568990Y-133520363D02*
X147616609Y-133615601D01*
X147616609Y-133615601D02*
X147664228Y-133663220D01*
X147664228Y-133663220D02*
X147759466Y-133710839D01*
X147759466Y-133710839D02*
X147854704Y-133710839D01*
X147854704Y-133710839D02*
X147949942Y-133663220D01*
X147949942Y-133663220D02*
X147997561Y-133615601D01*
X147997561Y-133615601D02*
X148045180Y-133520363D01*
X148045180Y-133520363D02*
X148045180Y-133282268D01*
X148045180Y-133282268D02*
X147997561Y-133139411D01*
X148045180Y-132806077D02*
X147045180Y-132567982D01*
X147045180Y-132567982D02*
X147759466Y-132377506D01*
X147759466Y-132377506D02*
X147045180Y-132187030D01*
X147045180Y-132187030D02*
X148045180Y-131948935D01*
X165031009Y-48670112D02*
X165078628Y-48812969D01*
X165078628Y-48812969D02*
X165126247Y-48860588D01*
X165126247Y-48860588D02*
X165221485Y-48908207D01*
X165221485Y-48908207D02*
X165364342Y-48908207D01*
X165364342Y-48908207D02*
X165459580Y-48860588D01*
X165459580Y-48860588D02*
X165507200Y-48812969D01*
X165507200Y-48812969D02*
X165554819Y-48717731D01*
X165554819Y-48717731D02*
X165554819Y-48336779D01*
X165554819Y-48336779D02*
X164554819Y-48336779D01*
X164554819Y-48336779D02*
X164554819Y-48670112D01*
X164554819Y-48670112D02*
X164602438Y-48765350D01*
X164602438Y-48765350D02*
X164650057Y-48812969D01*
X164650057Y-48812969D02*
X164745295Y-48860588D01*
X164745295Y-48860588D02*
X164840533Y-48860588D01*
X164840533Y-48860588D02*
X164935771Y-48812969D01*
X164935771Y-48812969D02*
X164983390Y-48765350D01*
X164983390Y-48765350D02*
X165031009Y-48670112D01*
X165031009Y-48670112D02*
X165031009Y-48336779D01*
X165554819Y-49336779D02*
X164554819Y-49336779D01*
X157092800Y-133710839D02*
X157045180Y-133567982D01*
X157045180Y-133567982D02*
X157045180Y-133329887D01*
X157045180Y-133329887D02*
X157092800Y-133234649D01*
X157092800Y-133234649D02*
X157140419Y-133187030D01*
X157140419Y-133187030D02*
X157235657Y-133139411D01*
X157235657Y-133139411D02*
X157330895Y-133139411D01*
X157330895Y-133139411D02*
X157426133Y-133187030D01*
X157426133Y-133187030D02*
X157473752Y-133234649D01*
X157473752Y-133234649D02*
X157521371Y-133329887D01*
X157521371Y-133329887D02*
X157568990Y-133520363D01*
X157568990Y-133520363D02*
X157616609Y-133615601D01*
X157616609Y-133615601D02*
X157664228Y-133663220D01*
X157664228Y-133663220D02*
X157759466Y-133710839D01*
X157759466Y-133710839D02*
X157854704Y-133710839D01*
X157854704Y-133710839D02*
X157949942Y-133663220D01*
X157949942Y-133663220D02*
X157997561Y-133615601D01*
X157997561Y-133615601D02*
X158045180Y-133520363D01*
X158045180Y-133520363D02*
X158045180Y-133282268D01*
X158045180Y-133282268D02*
X157997561Y-133139411D01*
X157045180Y-132710839D02*
X158045180Y-132710839D01*
X158045180Y-132710839D02*
X158045180Y-132472744D01*
X158045180Y-132472744D02*
X157997561Y-132329887D01*
X157997561Y-132329887D02*
X157902323Y-132234649D01*
X157902323Y-132234649D02*
X157807085Y-132187030D01*
X157807085Y-132187030D02*
X157616609Y-132139411D01*
X157616609Y-132139411D02*
X157473752Y-132139411D01*
X157473752Y-132139411D02*
X157283276Y-132187030D01*
X157283276Y-132187030D02*
X157188038Y-132234649D01*
X157188038Y-132234649D02*
X157092800Y-132329887D01*
X157092800Y-132329887D02*
X157045180Y-132472744D01*
X157045180Y-132472744D02*
X157045180Y-132710839D01*
X130145180Y-133758458D02*
X129145180Y-133520363D01*
X129145180Y-133520363D02*
X129859466Y-133329887D01*
X129859466Y-133329887D02*
X129145180Y-133139411D01*
X129145180Y-133139411D02*
X130145180Y-132901316D01*
X129145180Y-132520363D02*
X130145180Y-132520363D01*
X130422800Y-133801316D02*
X130422800Y-132382269D01*
X86897561Y-133139411D02*
X86945180Y-133234649D01*
X86945180Y-133234649D02*
X86945180Y-133377506D01*
X86945180Y-133377506D02*
X86897561Y-133520363D01*
X86897561Y-133520363D02*
X86802323Y-133615601D01*
X86802323Y-133615601D02*
X86707085Y-133663220D01*
X86707085Y-133663220D02*
X86516609Y-133710839D01*
X86516609Y-133710839D02*
X86373752Y-133710839D01*
X86373752Y-133710839D02*
X86183276Y-133663220D01*
X86183276Y-133663220D02*
X86088038Y-133615601D01*
X86088038Y-133615601D02*
X85992800Y-133520363D01*
X85992800Y-133520363D02*
X85945180Y-133377506D01*
X85945180Y-133377506D02*
X85945180Y-133282268D01*
X85945180Y-133282268D02*
X85992800Y-133139411D01*
X85992800Y-133139411D02*
X86040419Y-133091792D01*
X86040419Y-133091792D02*
X86373752Y-133091792D01*
X86373752Y-133091792D02*
X86373752Y-133282268D01*
X85945180Y-132663220D02*
X86945180Y-132663220D01*
X86945180Y-132663220D02*
X85945180Y-132091792D01*
X85945180Y-132091792D02*
X86945180Y-132091792D01*
X85945180Y-131615601D02*
X86945180Y-131615601D01*
X86945180Y-131615601D02*
X86945180Y-131377506D01*
X86945180Y-131377506D02*
X86897561Y-131234649D01*
X86897561Y-131234649D02*
X86802323Y-131139411D01*
X86802323Y-131139411D02*
X86707085Y-131091792D01*
X86707085Y-131091792D02*
X86516609Y-131044173D01*
X86516609Y-131044173D02*
X86373752Y-131044173D01*
X86373752Y-131044173D02*
X86183276Y-131091792D01*
X86183276Y-131091792D02*
X86088038Y-131139411D01*
X86088038Y-131139411D02*
X85992800Y-131234649D01*
X85992800Y-131234649D02*
X85945180Y-131377506D01*
X85945180Y-131377506D02*
X85945180Y-131615601D01*
X97054819Y-48336779D02*
X96054819Y-48336779D01*
X96054819Y-48336779D02*
X96054819Y-48574874D01*
X96054819Y-48574874D02*
X96102438Y-48717731D01*
X96102438Y-48717731D02*
X96197676Y-48812969D01*
X96197676Y-48812969D02*
X96292914Y-48860588D01*
X96292914Y-48860588D02*
X96483390Y-48908207D01*
X96483390Y-48908207D02*
X96626247Y-48908207D01*
X96626247Y-48908207D02*
X96816723Y-48860588D01*
X96816723Y-48860588D02*
X96911961Y-48812969D01*
X96911961Y-48812969D02*
X97007200Y-48717731D01*
X97007200Y-48717731D02*
X97054819Y-48574874D01*
X97054819Y-48574874D02*
X97054819Y-48336779D01*
X96054819Y-49765350D02*
X96054819Y-49574874D01*
X96054819Y-49574874D02*
X96102438Y-49479636D01*
X96102438Y-49479636D02*
X96150057Y-49432017D01*
X96150057Y-49432017D02*
X96292914Y-49336779D01*
X96292914Y-49336779D02*
X96483390Y-49289160D01*
X96483390Y-49289160D02*
X96864342Y-49289160D01*
X96864342Y-49289160D02*
X96959580Y-49336779D01*
X96959580Y-49336779D02*
X97007200Y-49384398D01*
X97007200Y-49384398D02*
X97054819Y-49479636D01*
X97054819Y-49479636D02*
X97054819Y-49670112D01*
X97054819Y-49670112D02*
X97007200Y-49765350D01*
X97007200Y-49765350D02*
X96959580Y-49812969D01*
X96959580Y-49812969D02*
X96864342Y-49860588D01*
X96864342Y-49860588D02*
X96626247Y-49860588D01*
X96626247Y-49860588D02*
X96531009Y-49812969D01*
X96531009Y-49812969D02*
X96483390Y-49765350D01*
X96483390Y-49765350D02*
X96435771Y-49670112D01*
X96435771Y-49670112D02*
X96435771Y-49479636D01*
X96435771Y-49479636D02*
X96483390Y-49384398D01*
X96483390Y-49384398D02*
X96531009Y-49336779D01*
X96531009Y-49336779D02*
X96626247Y-49289160D01*
X83524819Y-45666666D02*
X84239104Y-45666666D01*
X84239104Y-45666666D02*
X84381961Y-45619047D01*
X84381961Y-45619047D02*
X84477200Y-45523809D01*
X84477200Y-45523809D02*
X84524819Y-45380952D01*
X84524819Y-45380952D02*
X84524819Y-45285714D01*
X84524819Y-46666666D02*
X84524819Y-46095238D01*
X84524819Y-46380952D02*
X83524819Y-46380952D01*
X83524819Y-46380952D02*
X83667676Y-46285714D01*
X83667676Y-46285714D02*
X83762914Y-46190476D01*
X83762914Y-46190476D02*
X83810533Y-46095238D01*
X83524819Y-135666666D02*
X84239104Y-135666666D01*
X84239104Y-135666666D02*
X84381961Y-135619047D01*
X84381961Y-135619047D02*
X84477200Y-135523809D01*
X84477200Y-135523809D02*
X84524819Y-135380952D01*
X84524819Y-135380952D02*
X84524819Y-135285714D01*
X83620057Y-136095238D02*
X83572438Y-136142857D01*
X83572438Y-136142857D02*
X83524819Y-136238095D01*
X83524819Y-136238095D02*
X83524819Y-136476190D01*
X83524819Y-136476190D02*
X83572438Y-136571428D01*
X83572438Y-136571428D02*
X83620057Y-136619047D01*
X83620057Y-136619047D02*
X83715295Y-136666666D01*
X83715295Y-136666666D02*
X83810533Y-136666666D01*
X83810533Y-136666666D02*
X83953390Y-136619047D01*
X83953390Y-136619047D02*
X84524819Y-136047619D01*
X84524819Y-136047619D02*
X84524819Y-136666666D01*
X183233333Y-103724819D02*
X183233333Y-104439104D01*
X183233333Y-104439104D02*
X183280952Y-104581961D01*
X183280952Y-104581961D02*
X183376190Y-104677200D01*
X183376190Y-104677200D02*
X183519047Y-104724819D01*
X183519047Y-104724819D02*
X183614285Y-104724819D01*
X182852380Y-103724819D02*
X182233333Y-103724819D01*
X182233333Y-103724819D02*
X182566666Y-104105771D01*
X182566666Y-104105771D02*
X182423809Y-104105771D01*
X182423809Y-104105771D02*
X182328571Y-104153390D01*
X182328571Y-104153390D02*
X182280952Y-104201009D01*
X182280952Y-104201009D02*
X182233333Y-104296247D01*
X182233333Y-104296247D02*
X182233333Y-104534342D01*
X182233333Y-104534342D02*
X182280952Y-104629580D01*
X182280952Y-104629580D02*
X182328571Y-104677200D01*
X182328571Y-104677200D02*
X182423809Y-104724819D01*
X182423809Y-104724819D02*
X182709523Y-104724819D01*
X182709523Y-104724819D02*
X182804761Y-104677200D01*
X182804761Y-104677200D02*
X182852380Y-104629580D01*
D11*
X85070000Y-44670000D02*
X86400000Y-44670000D01*
X85070000Y-46000000D02*
X85070000Y-44670000D01*
X87670000Y-47330000D02*
X87670000Y-44670000D01*
X186790000Y-44670000D02*
X87670000Y-44670000D01*
X186790000Y-47330000D02*
X87670000Y-47330000D01*
X186790000Y-47330000D02*
X186790000Y-44670000D01*
X85070000Y-134670000D02*
X86400000Y-134670000D01*
X85070000Y-136000000D02*
X85070000Y-134670000D01*
X87670000Y-137330000D02*
X87670000Y-134670000D01*
X186790000Y-134670000D02*
X87670000Y-134670000D01*
X186790000Y-137330000D02*
X87670000Y-137330000D01*
X186790000Y-137330000D02*
X186790000Y-134670000D01*
X181570000Y-107870000D02*
X184230000Y-107870000D01*
X181570000Y-125710000D02*
X181570000Y-107870000D01*
X181570000Y-125710000D02*
X184230000Y-125710000D01*
X182900000Y-105270000D02*
X184230000Y-105270000D01*
X184230000Y-105270000D02*
X184230000Y-106600000D01*
X184230000Y-125710000D02*
X184230000Y-107870000D01*
%LPC*%
D12*
X157500000Y-74800000D03*
D13*
X160040000Y-74800000D03*
X162580000Y-74800000D03*
X165120000Y-74800000D03*
X167660000Y-74800000D03*
X170200000Y-74800000D03*
D14*
X163700000Y-101500000D03*
D15*
X163700000Y-104040000D03*
X163700000Y-106580000D03*
X163700000Y-109120000D03*
X163700000Y-111660000D03*
X163700000Y-114200000D03*
X163700000Y-116740000D03*
X163700000Y-119280000D03*
X163700000Y-121820000D03*
X163700000Y-124360000D03*
X171320000Y-124360000D03*
X171320000Y-121820000D03*
X171320000Y-119280000D03*
X171320000Y-116740000D03*
X171320000Y-114200000D03*
X171320000Y-111660000D03*
X171320000Y-109120000D03*
X171320000Y-106580000D03*
X171320000Y-104040000D03*
X171320000Y-101500000D03*
D14*
X154100000Y-64800000D03*
D15*
X156640000Y-64800000D03*
X159180000Y-64800000D03*
X161720000Y-64800000D03*
X164260000Y-64800000D03*
X166800000Y-64800000D03*
X169340000Y-64800000D03*
X171880000Y-64800000D03*
X174420000Y-64800000D03*
X176960000Y-64800000D03*
X176960000Y-57180000D03*
X174420000Y-57180000D03*
X171880000Y-57180000D03*
X169340000Y-57180000D03*
X166800000Y-57180000D03*
X164260000Y-57180000D03*
X161720000Y-57180000D03*
X159180000Y-57180000D03*
X156640000Y-57180000D03*
X154100000Y-57180000D03*
D16*
X150000000Y-62150000D03*
X150000000Y-59650000D03*
D12*
X91775000Y-121025000D03*
D13*
X91775000Y-118485000D03*
X94315000Y-121025000D03*
X94315000Y-118485000D03*
X96855000Y-121025000D03*
X96855000Y-118485000D03*
X99395000Y-121025000D03*
X99395000Y-118485000D03*
X101935000Y-121025000D03*
X101935000Y-118485000D03*
X104475000Y-121025000D03*
X104475000Y-118485000D03*
X107015000Y-121025000D03*
X107015000Y-118485000D03*
X109555000Y-121025000D03*
X109555000Y-118485000D03*
X112095000Y-121025000D03*
X112095000Y-118485000D03*
X114635000Y-121025000D03*
X114635000Y-118485000D03*
D12*
X157500000Y-79900000D03*
D13*
X157500000Y-77360000D03*
X160040000Y-79900000D03*
X160040000Y-77360000D03*
X162580000Y-79900000D03*
X162580000Y-77360000D03*
X165120000Y-79900000D03*
X165120000Y-77360000D03*
X167660000Y-79900000D03*
X167660000Y-77360000D03*
X170200000Y-79900000D03*
X170200000Y-77360000D03*
D16*
X166350000Y-97700000D03*
X168850000Y-97700000D03*
D12*
X86400000Y-46000000D03*
D13*
X88940000Y-46000000D03*
X91480000Y-46000000D03*
X94020000Y-46000000D03*
X96560000Y-46000000D03*
X99100000Y-46000000D03*
X101640000Y-46000000D03*
X104180000Y-46000000D03*
X106720000Y-46000000D03*
X109260000Y-46000000D03*
X111800000Y-46000000D03*
X114340000Y-46000000D03*
X116880000Y-46000000D03*
X119420000Y-46000000D03*
X121960000Y-46000000D03*
X124500000Y-46000000D03*
X127040000Y-46000000D03*
X129580000Y-46000000D03*
X132120000Y-46000000D03*
X134660000Y-46000000D03*
X137200000Y-46000000D03*
X139740000Y-46000000D03*
X142280000Y-46000000D03*
X144820000Y-46000000D03*
X147360000Y-46000000D03*
X149900000Y-46000000D03*
X152440000Y-46000000D03*
X154980000Y-46000000D03*
X157520000Y-46000000D03*
X160060000Y-46000000D03*
X162600000Y-46000000D03*
X165140000Y-46000000D03*
X167680000Y-46000000D03*
X170220000Y-46000000D03*
X172760000Y-46000000D03*
X175300000Y-46000000D03*
X177840000Y-46000000D03*
X180380000Y-46000000D03*
X182920000Y-46000000D03*
X185460000Y-46000000D03*
D12*
X86400000Y-136000000D03*
D13*
X88940000Y-136000000D03*
X91480000Y-136000000D03*
X94020000Y-136000000D03*
X96560000Y-136000000D03*
X99100000Y-136000000D03*
X101640000Y-136000000D03*
X104180000Y-136000000D03*
X106720000Y-136000000D03*
X109260000Y-136000000D03*
X111800000Y-136000000D03*
X114340000Y-136000000D03*
X116880000Y-136000000D03*
X119420000Y-136000000D03*
X121960000Y-136000000D03*
X124500000Y-136000000D03*
X127040000Y-136000000D03*
X129580000Y-136000000D03*
X132120000Y-136000000D03*
X134660000Y-136000000D03*
X137200000Y-136000000D03*
X139740000Y-136000000D03*
X142280000Y-136000000D03*
X144820000Y-136000000D03*
X147360000Y-136000000D03*
X149900000Y-136000000D03*
X152440000Y-136000000D03*
X154980000Y-136000000D03*
X157520000Y-136000000D03*
X160060000Y-136000000D03*
X162600000Y-136000000D03*
X165140000Y-136000000D03*
X167680000Y-136000000D03*
X170220000Y-136000000D03*
X172760000Y-136000000D03*
X175300000Y-136000000D03*
X177840000Y-136000000D03*
X180380000Y-136000000D03*
X182920000Y-136000000D03*
X185460000Y-136000000D03*
D12*
X182900000Y-106600000D03*
D13*
X182900000Y-109140000D03*
X182900000Y-111680000D03*
X182900000Y-114220000D03*
X182900000Y-116760000D03*
X182900000Y-119300000D03*
X182900000Y-121840000D03*
X182900000Y-124380000D03*
%LPD*%
M02*
